<svg width="19" height="18" viewBox="0 0 19 18" version="1.1" xmlns="http://www.w3.org/2000/svg" xmlns:xlink="http://www.w3.org/1999/xlink">
<title>ic_assessment_black_48px (1)</title>
<desc>Created using Figma</desc>
<g id="Canvas" transform="translate(359 231)">
<g id="ic_assessment_black_48px (1)">
<g id="Vector">
<use xlink:href="#path0_fill" transform="translate(-358.865 -231)" fill="#348BED"/>
</g>
</g>
</g>
<defs>
<path id="path0_fill" d="M 16 0L 2 0C 0.9 0 0 0.9 0 2L 0 16C 0 17.1 0.9 18 2 18L 16 18C 17.1 18 18 17.1 18 16L 18 2C 18 0.9 17.1 0 16 0ZM 6 14L 4 14L 4 7L 6 7L 6 14ZM 10 14L 8 14L 8 4L 10 4L 10 14ZM 14 14L 12 14L 12 10L 14 10L 14 14Z"/>
</defs>
</svg>
