<svg width="41" height="40" viewBox="0 0 41 40" version="1.1" xmlns="http://www.w3.org/2000/svg" xmlns:xlink="http://www.w3.org/1999/xlink">
<title>facebook</title>
<desc>Created using Figma</desc>
<g id="Canvas" transform="translate(126 -226)">
<g id="facebook">
<g id="Vector">
<use xlink:href="#path0_fill" transform="translate(-125.8 226)" fill="#348BED"/>
</g>
<g id="Group">
<g id="Vector">
<use xlink:href="#path1_fill" transform="translate(-116.848 235.581)" fill="#FFFFFF"/>
</g>
<g id="Vector">
<use xlink:href="#path2_fill" transform="translate(-111.551 240.569)" fill="#FFFFFF"/>
</g>
<g id="Vector">
<use xlink:href="#path3_fill" transform="translate(-106.276 239.94)" fill="#FFFFFF"/>
</g>
<g id="Vector">
<use xlink:href="#path4_fill" transform="translate(-105.785 241.368)" fill="#FFFFFF"/>
</g>
<g id="Vector">
<use xlink:href="#path5_fill" transform="translate(-105.38 242.834)" fill="#FFFFFF"/>
</g>
<g id="Vector">
<use xlink:href="#path6_fill" transform="translate(-102.714 251.497)" fill="#FFFFFF"/>
</g>
<g id="Vector">
<use xlink:href="#path7_fill" transform="translate(-105.794 239.941)" fill="#FFFFFF"/>
</g>
<g id="Vector">
<use xlink:href="#path8_fill" transform="translate(-101.737 245.134)" fill="#FFFFFF"/>
</g>
<g id="Vector">
<use xlink:href="#path9_fill" transform="translate(-103.423 245.142)" fill="#FFFFFF"/>
</g>
<g id="Vector">
<use xlink:href="#path10_fill" transform="translate(-103.474 245.143)" fill="#FFFFFF"/>
</g>
<g id="Vector">
<use xlink:href="#path11_fill" transform="translate(-103.394 245.142)" fill="#FFFFFF"/>
</g>
</g>
</g>
</g>
<defs>
<path id="path0_fill" fill-rule="evenodd" d="M -1.79036e-06 20C -1.79036e-06 8.95467 8.95467 7.48698e-06 20 7.48698e-06C 31.0453 7.48698e-06 40 8.95467 40 20C 40 31.0453 31.0453 40 20 40C 8.95467 40 -1.79036e-06 31.0453 -1.79036e-06 20Z"/>
<path id="path1_fill" d="M 21.6016 5.49069L 21.5943 5.46437C 21.062 3.30924 18.6591 0.997037 16.4527 0.515929L 16.427 0.510674C 12.8575 -0.170239 9.23801 -0.170239 5.66913 0.510674L 5.64415 0.515929C 3.43776 0.997037 1.03419 3.30924 0.5005 5.46437L 0.493926 5.49069C -0.164641 8.49959 -0.164641 11.5519 0.493926 14.5608L 0.5005 14.5877C 1.01184 16.6495 3.23532 18.8559 5.36022 19.4632L 5.36022 21.8674C 5.36022 22.7389 6.42168 23.1668 7.02438 22.5385L 9.46147 20.0048C 9.99056 20.0344 10.5196 20.0508 11.0481 20.0508C 12.8443 20.0508 14.6432 19.8812 16.427 19.5401L 16.452 19.5362C 18.6591 19.0537 21.0626 16.7415 21.5943 14.5877L 21.6016 14.5608C 22.2608 11.5512 22.2608 8.50025 21.6016 5.49069ZM 19.6725 14.1243C 19.3163 15.5315 17.4924 17.2785 16.0425 17.6019C 14.1444 17.9614 12.2318 18.1165 10.3205 18.0639C 10.2824 18.0626 10.2462 18.0771 10.2193 18.104C 9.94784 18.3827 8.4401 19.9318 8.4401 19.9318L 6.54722 21.874C 6.40919 22.018 6.16601 21.92 6.16601 21.7202L 6.16601 17.7353C 6.16601 17.6696 6.11935 17.6144 6.05428 17.6019C 6.05428 17.6019 6.05362 17.6019 6.05296 17.6019C 4.60307 17.2785 2.77985 15.5315 2.42296 14.1243C 1.83012 11.404 1.83012 8.64679 2.42296 5.92642C 2.77985 4.52056 4.60307 2.77227 6.05296 2.45022C 9.36814 1.81991 12.7287 1.81991 16.0425 2.45022C 17.4931 2.77227 19.3163 4.52056 19.6725 5.92642C 20.2667 8.64679 20.2667 11.404 19.6725 14.1243Z"/>
<path id="path2_fill" d="M 8.90491 10.9759C 8.6821 10.9076 8.46981 10.8629 8.27263 10.782C 6.22858 9.93353 4.34686 8.83986 2.85753 7.16058C 2.00967 6.20822 1.34651 5.13098 0.78587 3.99262C 0.52034 3.45236 0.296215 2.88977 0.0681487 2.33308C -0.1402 1.82502 0.166083 1.29856 0.489452 0.916041C 0.792445 0.55521 1.18219 0.280462 1.60546 0.0780286C 1.93475 -0.0810264 2.26009 0.00968852 2.50064 0.289678C 3.02119 0.893035 3.49901 1.52926 3.88613 2.22858C 4.12471 2.65908 4.05899 3.18554 3.62717 3.47802C 3.52201 3.54966 3.42671 3.63313 3.32878 3.71398C 3.24268 3.7843 3.16249 3.85528 3.10334 3.95058C 2.99621 4.12541 2.99095 4.33178 3.05996 4.52238C 3.59234 5.98345 4.48883 7.12051 5.96107 7.73307C 6.19637 7.83034 6.43233 7.94468 6.70311 7.91379C 7.15793 7.85989 7.30516 7.36172 7.62392 7.10145C 7.9348 6.84709 8.3331 6.84314 8.66764 7.05543C 9.0035 7.26838 9.32818 7.49579 9.65089 7.72649C 9.96768 7.95258 10.2845 8.17342 10.5763 8.42975C 10.8569 8.67885 10.9542 9.00222 10.7952 9.34005C 10.506 9.95524 10.084 10.4672 9.4754 10.7946C 9.30452 10.8879 9.09945 10.9161 8.90491 10.9759C 8.6821 10.9082 9.09945 10.9161 8.90491 10.9759Z"/>
<path id="path3_fill" d="M 0.481257 0.00098116C 3.15496 0.0752507 5.35084 1.84985 5.82143 4.49332C 5.90227 4.94485 5.93054 5.40493 5.96669 5.86238C 5.98114 6.05364 5.8727 6.23568 5.66501 6.23962C 5.45074 6.24225 5.35413 6.06217 5.34032 5.8696C 5.31272 5.48905 5.29432 5.10784 5.24174 4.72992C 4.96503 2.7391 3.37645 1.09073 1.39418 0.737782C 1.09513 0.683888 0.790824 0.670069 0.488488 0.639179C 0.296571 0.618804 0.0468148 0.606991 0.00475061 0.369723C -0.030741 0.170575 0.138171 0.0121792 0.32746 0.00166312C 0.378068 -0.00162314 0.429335 0.00098116 0.481257 0.00098116C 3.15496 0.0752507 0.429335 0.00098116 0.481257 0.00098116Z"/>
<path id="path4_fill" d="M 4.05452 3.84023C 4.04992 3.87441 4.04663 3.95194 4.02757 4.02621C 3.95725 4.29502 3.54909 4.32788 3.4551 4.0571C 3.42881 3.97691 3.42356 3.88625 3.42356 3.79883C 3.4229 3.23425 3.29999 2.6677 3.01409 2.17476C 2.72095 1.66801 2.27139 1.24209 1.74625 0.98445C 1.42814 0.828024 1.0844 0.731417 0.735394 0.674237C 0.583569 0.647946 0.429116 0.633481 0.275977 0.611135C 0.0906317 0.586159 -0.00861504 0.467215 0.000586487 0.285156C 0.00847351 0.113614 0.134008 -0.0093217 0.320668 0.000537082C 0.933884 0.0360287 1.52673 0.168798 2.0729 0.457332C 3.18234 1.04557 3.81528 1.97229 4.00128 3.2099C 4.00917 3.26642 4.02297 3.32166 4.02626 3.37818C 4.03677 3.51818 4.044 3.65751 4.05452 3.84023C 4.05058 3.87375 4.044 3.65751 4.05452 3.84023Z"/>
<path id="path5_fill" d="M 1.98555 2.31031C 1.76209 2.31426 1.64247 2.19068 1.6188 1.98562C 1.60303 1.84168 1.59054 1.69776 1.55571 1.55843C 1.48801 1.28501 1.34276 1.03064 1.11272 0.862383C 1.00362 0.783513 0.880711 0.72568 0.751232 0.687559C 0.586919 0.640237 0.416032 0.653398 0.253033 0.613306C 0.0755749 0.569927 -0.0230119 0.425988 0.00459272 0.259046C 0.0302256 0.107878 0.178107 -0.0104313 0.343734 0.00074201C 1.37956 0.0750115 2.12029 0.611978 2.22676 1.8325C 2.23465 1.9186 2.24319 2.00865 2.22413 2.09212C 2.19193 2.23212 2.08742 2.30242 1.98555 2.31031C 1.76143 2.31426 2.08742 2.30242 1.98555 2.31031Z"/>
<path id="path6_fill" d="M 0.0674402 0.0478408C 0.261987 -0.0119691 -0.155368 -0.0198561 0.0674402 0.0478408L 0.0674402 0.0478408Z"/>
<path id="path7_fill" d="M -7.42137e-07 -1.44416e-05C 0.00131376 -1.44416e-05 0.00328728 0.000667522 0.00591629 0.000667522C 0.154455 0.00526829 2.56788 0.071626 -7.42137e-07 -1.44416e-05Z"/>
<path id="path8_fill" d="M 0.0056799 0.0742641C -0.00483613 -0.108452 0.00173639 0.107784 0.0056799 0.0742641L 0.0056799 0.0742641Z"/>
<path id="path9_fill" d="M 0.0295092 0.0026784C 0.0335332 0.00133707 0.0368857 0.000688349 0.040239 1.76836e-05C 0.0301791 1.76836e-05 0.0160967 -1.3754e-05 7.57282e-07 0.00132758C 0.0107314 0.00132758 0.0201199 0.0026784 0.0295092 0.0026784Z"/>
<path id="path10_fill" d="M 0.0799931 0.00131033C 0.0701343 0.00131033 0.0615909 -1.34788e-05 0.0510748 -1.34788e-05C 0.00309543 -1.34788e-05 -0.0461993 0.00328209 0.0799931 0.00131033Z"/>
<path id="path11_fill" d="M 0.0144312 2.37839e-05C 0.00992109 0.000925809 0.00450999 0.00179832 -1.37638e-07 0.00360237C 0.0360809 0.000896299 0.0333737 2.37839e-05 0.0144312 2.37839e-05Z"/>
</defs>
</svg>
