<svg width="74" height="66" viewBox="0 0 74 66" version="1.1" xmlns="http://www.w3.org/2000/svg" xmlns:xlink="http://www.w3.org/1999/xlink">
<title>icons site</title>
<desc>Created using Figma</desc>
<g id="Canvas" transform="translate(-806 -1394)">
<g id="icons site">
<g id="Group">
<g id="Group">
<g id="Vector">
<use xlink:href="#path0_fill" transform="translate(806 1453.33)" fill="#92A1B0"/>
</g>
<g id="Vector">
<use xlink:href="#path1_fill" transform="translate(806 1440.33)" fill="#92A1B0"/>
</g>
<g id="Vector">
<use xlink:href="#path2_fill" transform="translate(817 1447.33)" fill="#92A1B0"/>
</g>
<g id="Group">
<g id="Vector">
<use xlink:href="#path3_fill" transform="translate(815 1402.33)" fill="#92A1B0"/>
</g>
<g id="Vector">
<use xlink:href="#path4_fill" transform="translate(818.999 1407.33)" fill="#92A1B0"/>
</g>
</g>
<g id="Vector">
<use xlink:href="#path5_fill" transform="translate(831.999 1429.33)" fill="#92A1B0"/>
</g>
<g id="Vector">
<use xlink:href="#path6_fill" transform="translate(841.999 1423.33)" fill="#92A1B0"/>
</g>
<g id="Vector">
<use xlink:href="#path7_fill" transform="translate(848 1423.33)" fill="#92A1B0"/>
</g>
<g id="Vector">
<use xlink:href="#path6_fill" transform="translate(835.999 1423.33)" fill="#92A1B0"/>
</g>
</g>
</g>
<g id="Vector">
<use xlink:href="#path8_fill" transform="translate(831.177 1394)" fill="url(#paint9_linear)"/>
<use xlink:href="#path9_fill" transform="translate(831.177 1394)" fill="url(#paint10_linear)"/>
</g>
</g>
</g>
<defs>
<linearGradient id="paint9_linear" x1="0" y1="0" x2="1" y2="0" gradientUnits="userSpaceOnUse" gradientTransform="matrix(-23.6453 10.9846 -17.7342 -337.444 32.5124 174.51)">
<stop offset="0" stop-color="#FBB601"/>
<stop offset="1" stop-color="#F2994A"/>
</linearGradient>
<linearGradient id="paint10_linear" x1="0" y1="0" x2="1" y2="0" gradientUnits="userSpaceOnUse" gradientTransform="matrix(-23.6453 10.9846 -17.7342 -337.444 32.5124 174.51)">
<stop offset="0" stop-color="#FBB601"/>
<stop offset="1" stop-color="#F2994A"/>
</linearGradient>
<path id="path0_fill" d="M 73 6L 1.00001 6C 0.447012 6 1.17188e-05 5.553 1.17188e-05 5L 1.17188e-05 1C 1.17188e-05 0.447 0.447012 0 1.00001 0L 73 0C 73.553 0 74 0.447 74 1L 74 5C 74 5.553 73.552 6 73 6ZM 1.99897 4L 71.999 4L 71.999 2L 1.99897 2L 1.99897 4Z"/>
<path id="path1_fill" d="M 73.0001 15L 1.00007 15C 0.628073 15 0.287086 14.793 0.114086 14.464C -0.0589136 14.135 -0.0329254 13.736 0.177075 13.431L 9.17707 0.431C 9.36507 0.161 9.67103 0 9.99903 0L 63.999 0C 64.327 0 64.6341 0.161 64.8211 0.431L 73.8211 13.431C 74.0321 13.737 74.057 14.135 73.884 14.464C 73.7111 14.793 73.3721 15 73.0001 15ZM 2.90706 13L 71.0911 13L 63.4761 2L 10.522 2L 2.90706 13Z"/>
<path id="path2_fill" d="M 51 2L 1.00001 2C 0.447012 2 1.17188e-05 1.553 1.17188e-05 1C 1.17188e-05 0.448 0.447012 0 1.00001 0L 51 0C 51.553 0 52 0.448 52 1C 52 1.553 51.552 2 51 2Z"/>
<path id="path3_fill" d="M 56 40L 1.17188e-05 40L 1.17188e-05 6C 1.17188e-05 2.691 2.69101 0 6.00001 0L 13 0L 13 2L 6.00001 2C 3.79501 2 2.00001 3.794 2.00001 6L 2.00001 38L 54 38L 54 6C 54 3.794 52.205 2 50 2L 43 2L 43 0L 50 0C 53.309 0 56 2.691 56 6L 56 40Z"/>
<path id="path4_fill" d="M 48.001 31L -2.58789e-05 31L -2.58789e-05 0L 8.99997 0L 8.99997 2L 1.99997 2L 1.99997 29L 46.001 29L 46.001 2L 39.001 2L 39.001 0L 48.001 0L 48.001 31Z"/>
<path id="path5_fill" d="M 22 0L -2.58789e-05 0L -2.58789e-05 2L 22 2L 22 0Z"/>
<path id="path6_fill" d="M 1.99997 0L -2.58789e-05 0L -2.58789e-05 2L 1.99997 2L 1.99997 0Z"/>
<path id="path7_fill" d="M 2.00001 0L 1.17188e-05 0L 1.17188e-05 2L 2.00001 2L 2.00001 0Z"/>
<path id="path8_fill" fill-rule="evenodd" d="M 10.6395 0C 11.1685 0 11.6245 0.299 11.8515 0.737C 12.0805 0.299 12.5385 0 13.0665 0C 13.8225 0 14.4355 0.612997 14.4355 1.366C 14.4355 2.12 13.8225 2.73199 13.0665 2.73199C 12.5385 2.73199 12.0815 2.43298 11.8515 1.99698C 11.6245 2.43298 11.1675 2.73199 10.6395 2.73199C 9.88248 2.73199 9.26948 2.12 9.26948 1.366C 9.27048 0.612997 9.88348 0 10.6395 0ZM 4.61348 3.69498L 4.83046 3.00897C 4.90146 2.78797 5.0675 2.61 5.2845 2.526C 5.5035 2.442 5.74546 2.461 5.94746 2.577C 7.14346 3.267 9.58152 3.965 11.9295 3.965C 14.3195 3.965 16.6575 3.245 17.8155 2.577C 18.0165 2.46 18.2605 2.442 18.4765 2.526C 18.6945 2.61 18.8615 2.78797 18.9305 3.00897L 19.1485 3.69498C 19.2755 4.09798 19.0515 4.528 18.6475 4.655C 18.3015 4.764 17.9355 4.61599 17.7575 4.31799C 16.1195 5.03799 13.9005 5.49698 11.9285 5.49698C 9.94048 5.49698 7.64851 5.02697 6.00551 4.31497C 5.82751 4.61497 5.46046 4.764 5.11146 4.655C 4.70946 4.528 4.48548 4.09898 4.61348 3.69498Z"/>
<path id="path9_fill" d="M 4.65248 7.79298C 4.71148 7.80098 4.81347 7.82095 4.96547 7.87095C 7.09247 8.57795 9.42051 8.95197 11.6955 8.95197L 11.9525 8.95197C 14.2285 8.95197 16.5565 8.57896 18.6815 7.87296C 18.8325 7.82296 18.9335 7.80296 18.9945 7.79496C 19.1355 7.94496 19.4405 8.40597 19.9735 9.82697L 19.9845 9.85496L 19.9965 9.88297L 21.4795 13.505C 21.8175 14.779 21.6535 15.868 20.9925 16.742C 20.1925 17.801 18.7255 18.433 17.0705 18.433L 6.5815 18.433C 4.9255 18.433 3.4595 17.801 2.6595 16.743C 1.9985 15.868 1.83446 14.779 2.17146 13.504L 3.65449 9.87897L 3.66548 9.85197L 3.67549 9.82496C 4.20549 8.40396 4.51148 7.94198 4.65248 7.79298ZM 4.59047 5.78797C 3.30647 5.78797 2.62551 6.92396 1.79951 9.12196L 0.271498 12.859C -1.0055 17.368 2.41051 20.434 6.57851 20.434L 17.0675 20.434C 21.2345 20.434 24.6515 17.367 23.3735 12.859L 21.8445 9.12595C 21.0205 6.92695 20.3385 5.79096 19.0545 5.79096C 18.7555 5.79096 18.4235 5.85297 18.0505 5.97697C 16.1285 6.61497 14.0415 6.95396 11.9515 6.95396C 11.9085 6.95396 11.8655 6.95396 11.8235 6.95396C 11.7815 6.95396 11.7385 6.95396 11.6955 6.95396C 9.60551 6.95396 7.51747 6.61395 5.59547 5.97495C 5.22047 5.84895 4.88947 5.78797 4.59047 5.78797Z"/>
</defs>
</svg>
