<svg width="56" height="66" viewBox="0 0 56 66" version="1.1" xmlns="http://www.w3.org/2000/svg" xmlns:xlink="http://www.w3.org/1999/xlink">
<title>6</title>
<desc>Created using Figma</desc>
<g id="Canvas" transform="translate(-794 -3495)">
<g id="6">
<g id="Group">
<g id="Vector">
<use xlink:href="#path0_fill" transform="translate(794 3514)" fill="#92A1B0"/>
</g>
<g id="Vector">
<use xlink:href="#path1_fill" transform="translate(799 3554)" fill="#92A1B0"/>
</g>
<g id="Vector">
<use xlink:href="#path1_fill" transform="translate(833 3554)" fill="#92A1B0"/>
</g>
<g id="Vector">
<use xlink:href="#path2_fill" transform="translate(802 3530)" fill="#92A1B0"/>
</g>
<g id="Vector">
<use xlink:href="#path3_fill" transform="translate(802 3519)" fill="#92A1B0"/>
</g>
<g id="Vector">
<use xlink:href="#path4_fill" transform="translate(800 3524)" fill="#92A1B0"/>
</g>
<g id="Vector">
<use xlink:href="#path4_fill" transform="translate(800 3538)" fill="#92A1B0"/>
</g>
<g id="Group">
<g id="Vector">
<use xlink:href="#path5_fill" transform="translate(828 3533)" fill="#92A1B0"/>
</g>
<g id="Vector">
<use xlink:href="#path6_fill" transform="translate(829.465 3534.46)" fill="#92A1B0"/>
</g>
<g id="Vector">
<use xlink:href="#path7_fill" transform="translate(835.121 3540.12)" fill="#92A1B0"/>
</g>
<g id="Vector">
<use xlink:href="#path8_fill" transform="translate(829.465 3540.12)" fill="#92A1B0"/>
</g>
<g id="Vector">
<use xlink:href="#path9_fill" transform="translate(835.121 3534.46)" fill="#92A1B0"/>
</g>
</g>
<g id="Vector">
<use xlink:href="#path10_fill" transform="translate(800 3495)" fill="#92A1B0"/>
<use xlink:href="#path10_fill" transform="translate(800 3495)" fill="url(#paint13_linear)"/>
<use xlink:href="#path11_fill" transform="translate(800 3495)" fill="#92A1B0"/>
<use xlink:href="#path11_fill" transform="translate(800 3495)" fill="url(#paint15_linear)"/>
<use xlink:href="#path12_fill" transform="translate(800 3495)" fill="#92A1B0"/>
<use xlink:href="#path12_fill" transform="translate(800 3495)" fill="url(#paint17_linear)"/>
<use xlink:href="#path13_fill" transform="translate(800 3495)" fill="#92A1B0"/>
<use xlink:href="#path13_fill" transform="translate(800 3495)" fill="url(#paint19_linear)"/>
<use xlink:href="#path14_fill" transform="translate(800 3495)" fill="#92A1B0"/>
<use xlink:href="#path14_fill" transform="translate(800 3495)" fill="url(#paint21_linear)"/>
<use xlink:href="#path15_fill" transform="translate(800 3495)" fill="#92A1B0"/>
<use xlink:href="#path15_fill" transform="translate(800 3495)" fill="url(#paint23_linear)"/>
<use xlink:href="#path16_fill" transform="translate(800 3495)" fill="#92A1B0"/>
<use xlink:href="#path16_fill" transform="translate(800 3495)" fill="url(#paint25_linear)"/>
<use xlink:href="#path17_fill" transform="translate(800 3495)" fill="#92A1B0"/>
<use xlink:href="#path17_fill" transform="translate(800 3495)" fill="url(#paint27_linear)"/>
<use xlink:href="#path18_fill" transform="translate(800 3495)" fill="#92A1B0"/>
<use xlink:href="#path18_fill" transform="translate(800 3495)" fill="url(#paint29_linear)"/>
</g>
</g>
</g>
</g>
<defs>
<linearGradient id="paint13_linear" x1="0" y1="0" x2="1" y2="0" gradientUnits="userSpaceOnUse" gradientTransform="matrix(-8.619 10.0081 -6.46433 -307.446 18.2321 161.379)">
<stop offset="0" stop-color="#FBB601"/>
<stop offset="1" stop-color="#F2994A"/>
</linearGradient>
<linearGradient id="paint15_linear" x1="0" y1="0" x2="1" y2="0" gradientUnits="userSpaceOnUse" gradientTransform="matrix(-8.619 10.0081 -6.46433 -307.446 18.2321 161.379)">
<stop offset="0" stop-color="#FBB601"/>
<stop offset="1" stop-color="#F2994A"/>
</linearGradient>
<linearGradient id="paint17_linear" x1="0" y1="0" x2="1" y2="0" gradientUnits="userSpaceOnUse" gradientTransform="matrix(-8.619 10.0081 -6.46433 -307.446 18.2321 161.379)">
<stop offset="0" stop-color="#FBB601"/>
<stop offset="1" stop-color="#F2994A"/>
</linearGradient>
<linearGradient id="paint19_linear" x1="0" y1="0" x2="1" y2="0" gradientUnits="userSpaceOnUse" gradientTransform="matrix(-8.619 10.0081 -6.46433 -307.446 18.2321 161.379)">
<stop offset="0" stop-color="#FBB601"/>
<stop offset="1" stop-color="#F2994A"/>
</linearGradient>
<linearGradient id="paint21_linear" x1="0" y1="0" x2="1" y2="0" gradientUnits="userSpaceOnUse" gradientTransform="matrix(-8.619 10.0081 -6.46433 -307.446 18.2321 161.379)">
<stop offset="0" stop-color="#FBB601"/>
<stop offset="1" stop-color="#F2994A"/>
</linearGradient>
<linearGradient id="paint23_linear" x1="0" y1="0" x2="1" y2="0" gradientUnits="userSpaceOnUse" gradientTransform="matrix(-8.619 10.0081 -6.46433 -307.446 18.2321 161.379)">
<stop offset="0" stop-color="#FBB601"/>
<stop offset="1" stop-color="#F2994A"/>
</linearGradient>
<linearGradient id="paint25_linear" x1="0" y1="0" x2="1" y2="0" gradientUnits="userSpaceOnUse" gradientTransform="matrix(-8.619 10.0081 -6.46433 -307.446 18.2321 161.379)">
<stop offset="0" stop-color="#FBB601"/>
<stop offset="1" stop-color="#F2994A"/>
</linearGradient>
<linearGradient id="paint27_linear" x1="0" y1="0" x2="1" y2="0" gradientUnits="userSpaceOnUse" gradientTransform="matrix(-8.619 10.0081 -6.46433 -307.446 18.2321 161.379)">
<stop offset="0" stop-color="#FBB601"/>
<stop offset="1" stop-color="#F2994A"/>
</linearGradient>
<linearGradient id="paint29_linear" x1="0" y1="0" x2="1" y2="0" gradientUnits="userSpaceOnUse" gradientTransform="matrix(-8.619 10.0081 -6.46433 -307.446 18.2321 161.379)">
<stop offset="0" stop-color="#FBB601"/>
<stop offset="1" stop-color="#F2994A"/>
</linearGradient>
<path id="path0_fill" d="M 53 42L 3 42C 1.346 42 0 40.654 0 39L 0 3C 0 1.346 1.346 0 3 0L 17 0L 17 2L 3 2C 2.448 2 2 2.448 2 3L 2 39C 2 39.552 2.448 40 3 40L 53 40C 53.552 40 54 39.552 54 39L 54 3C 54 2.448 53.552 2 53 2L 39 2L 39 0L 53 0C 54.654 0 56 1.346 56 3L 56 39C 56 40.654 54.654 42 53 42Z"/>
<path id="path1_fill" d="M 10 7L 2 7C 0.897 7 0 6.103 0 5L 0 0L 12 0L 12 5C 12 6.103 11.103 7 10 7ZM 2 2L 2 5L 10.002 5L 10 2L 2 2Z"/>
<path id="path2_fill" d="M 1 10C 0.447 10 0 9.553 0 9L 0 1C 0 0.447 0.447 0 1 0C 1.553 0 2 0.447 2 1L 2 9C 2 9.553 1.553 10 1 10Z"/>
<path id="path3_fill" d="M 42 32L 1 32C 0.447 32 0 31.553 0 31L 0 26C 0 25.447 0.447 25 1 25C 1.553 25 2 25.447 2 26L 2 30L 41 30L 41 2L 2 2L 2 6C 2 6.553 1.553 7 1 7C 0.447 7 0 6.553 0 6L 0 1C 0 0.447 0.447 0 1 0L 42 0C 42.553 0 43 0.447 43 1L 43 31C 43 31.553 42.553 32 42 32Z"/>
<path id="path4_fill" d="M 5 8L 1 8C 0.447 8 0 7.553 0 7L 0 1C 0 0.447 0.447 0 1 0L 5 0C 5.553 0 6 0.447 6 1L 6 7C 6 7.553 5.553 8 5 8ZM 2 6L 4 6L 4 2L 2 2L 2 6Z"/>
<path id="path5_fill" d="M 6 12C 4.397 12 2.891 11.376 1.758 10.242C 0.623996 9.109 0 7.602 0 6C 0 4.398 0.623996 2.891 1.758 1.758C 2.891 0.623996 4.398 0 6 0C 7.602 0 9.109 0.623996 10.242 1.758C 11.376 2.891 12 4.398 12 6C 12 7.602 11.376 9.109 10.242 10.242C 9.109 11.376 7.603 12 6 12ZM 6 2C 4.932 2 3.928 2.416 3.172 3.172C 2.416 3.928 2 4.932 2 6C 2 7.068 2.416 8.072 3.172 8.828C 4.684 10.34 7.317 10.34 8.828 8.828C 9.584 8.072 10 7.068 10 6C 10 4.932 9.584 3.928 8.828 3.172C 8.072 2.416 7.068 2 6 2Z"/>
<path id="path6_fill" d="M 2.41428 3.41428C 2.15828 3.41428 1.90225 3.31625 1.70725 3.12125L 0.293246 1.70725C -0.0977544 1.31625 -0.0977544 0.684246 0.293246 0.293246C 0.684246 -0.0977544 1.31625 -0.0977544 1.70725 0.293246L 3.12125 1.70725C 3.51225 2.09825 3.51225 2.73025 3.12125 3.12125C 2.92625 3.31625 2.67028 3.41428 2.41428 3.41428Z"/>
<path id="path7_fill" d="M 2.41422 3.41422C 2.15822 3.41422 1.90225 3.31625 1.70725 3.12125L 0.293251 1.70725C -0.0977485 1.31625 -0.0977485 0.684251 0.293251 0.293251C 0.684251 -0.0977485 1.31625 -0.0977485 1.70725 0.293251L 3.12125 1.70725C 3.51225 2.09825 3.51225 2.73025 3.12125 3.12125C 2.92625 3.31725 2.67022 3.41422 2.41422 3.41422Z"/>
<path id="path8_fill" d="M 1.00028 3.41422C 0.744277 3.41422 0.488246 3.31625 0.293246 3.12125C -0.0977544 2.73025 -0.0977544 2.09825 0.293246 1.70725L 1.70725 0.293251C 2.09825 -0.0977485 2.73025 -0.0977485 3.12125 0.293251C 3.51225 0.684251 3.51225 1.31625 3.12125 1.70725L 1.70725 3.12125C 1.51225 3.31725 1.25628 3.41422 1.00028 3.41422Z"/>
<path id="path9_fill" d="M 1.00022 3.41428C 0.744222 3.41428 0.488251 3.31625 0.293251 3.12125C -0.0977485 2.73025 -0.0977485 2.09825 0.293251 1.70725L 1.70725 0.293246C 2.09825 -0.0977544 2.73025 -0.0977544 3.12125 0.293246C 3.51225 0.684246 3.51225 1.31625 3.12125 1.70725L 1.70725 3.12125C 1.51225 3.31625 1.25622 3.41428 1.00022 3.41428Z"/>
<path id="path10_fill" d="M 22 8C 19.794 8 18 6.206 18 4C 18 1.794 19.794 0 22 0C 24.206 0 26 1.794 26 4C 26 6.206 24.206 8 22 8ZM 22 2C 20.897 2 20 2.897 20 4C 20 5.103 20.897 6 22 6C 23.103 6 24 5.103 24 4C 24 2.897 23.103 2 22 2Z"/>
<path id="path11_fill" d="M 40 11C 37.794 11 36 9.206 36 7C 36 4.794 37.794 3 40 3C 42.206 3 44 4.794 44 7C 44 9.206 42.206 11 40 11ZM 40 5C 38.897 5 38 5.897 38 7C 38 8.103 38.897 9 40 9C 41.103 9 42 8.103 42 7C 42 5.897 41.103 5 40 5Z"/>
<path id="path12_fill" d="M 4 11C 1.794 11 0 9.206 0 7C 0 4.794 1.794 3 4 3C 6.206 3 8 4.794 8 7C 8 9.206 6.206 11 4 11ZM 4 5C 2.897 5 2 5.897 2 7C 2 8.103 2.897 9 4 9C 5.103 9 6 8.103 6 7C 6 5.897 5.103 5 4 5Z"/>
<path id="path13_fill" d="M 27 19L 25 19L 25 21L 27 21L 27 19Z"/>
<path id="path14_fill" d="M 19 19L 17 19L 17 21L 19 21L 19 19Z"/>
<path id="path15_fill" d="M 23 7L 21 7L 21 17L 23 17L 23 7Z"/>
<path id="path16_fill" d="M 23 19L 21 19L 21 20.999L 23 20.999L 23 19Z"/>
<path id="path17_fill" d="M 31 21L 29 21L 29 12.45L 36.547 7.65601L 37.619 9.344L 31 13.55L 31 21Z"/>
<path id="path18_fill" d="M 15 21L 13 21L 13 13.55L 6.38096 9.344L 7.45298 7.65601L 15 12.45L 15 21Z"/>
</defs>
</svg>
