<svg width="66" height="66" viewBox="0 0 66 66" version="1.1" xmlns="http://www.w3.org/2000/svg" xmlns:xlink="http://www.w3.org/1999/xlink">
<title>icons phone</title>
<desc>Created using Figma</desc>
<g id="Canvas" transform="translate(-1154 -1394)">
<g id="icons phone">
<g id="Vector">
<use xlink:href="#path0_fill" transform="translate(1154 1394)" fill="url(#paint0_linear)"/>
</g>
<g id="Group">
<g id="Vector">
<use xlink:href="#path1_fill" transform="translate(1173.83 1401)" fill="#92A1B0"/>
</g>
<g id="Vector">
<use xlink:href="#path2_fill" transform="translate(1174.33 1409)" fill="#92A1B0"/>
</g>
<g id="Vector">
<use xlink:href="#path3_fill" transform="translate(1183.83 1447)" fill="#92A1B0"/>
</g>
</g>
</g>
</g>
<defs>
<linearGradient id="paint0_linear" x1="0" y1="0" x2="1" y2="0" gradientUnits="userSpaceOnUse" gradientTransform="matrix(-65.999 35.3574 -49.4999 -1086.17 90.749 561.714)">
<stop offset="0" stop-color="#FBB601"/>
<stop offset="1" stop-color="#F2994A"/>
</linearGradient>
<path id="path0_fill" d="M 36.871 65.773L 36.639 63.787C 39.122 63.497 41.566 62.905 43.9 62.028L 44.603 63.901C 42.116 64.835 39.516 65.465 36.871 65.773ZM 28.922 65.747C 26.282 65.423 23.687 64.776 21.206 63.827L 21.921 61.96C 24.25 62.851 26.688 63.457 29.166 63.763L 28.922 65.747ZM 51.656 60.222L 50.523 58.574C 52.579 57.163 54.465 55.502 56.131 53.637L 57.623 54.969C 55.851 56.952 53.843 58.72 51.656 60.222ZM 14.181 60.109C 12.002 58.593 10.005 56.814 8.245 54.821L 9.745 53.497C 11.398 55.371 13.275 57.043 15.323 58.467L 14.181 60.109ZM 62.168 48.447L 60.4 47.509C 61.572 45.302 62.472 42.956 63.077 40.537L 65.016 41.021C 64.373 43.599 63.414 46.097 62.168 48.447ZM 3.73801 48.269C 2.50601 45.911 1.56199 43.406 0.93399 40.826L 2.87701 40.353C 3.46601 42.776 4.35299 45.127 5.51099 47.343L 3.73801 48.269ZM 65.999 33.13L 63.999 33.13L 64 32.976C 64 30.491 63.699 27.996 63.107 25.582L 65.048 25.105C 65.679 27.673 65.999 30.329 65.999 32.998L 65.999 33.13ZM 2 32.934L 0 32.93C 0.006 30.259 0.331011 27.604 0.96701 25.039L 2.90799 25.519C 2.31199 27.929 2.006 30.424 2 32.934ZM 60.46 18.598C 59.3 16.393 57.871 14.325 56.212 12.452L 57.71 11.126C 59.475 13.119 60.996 15.32 62.23 17.669L 60.46 18.598ZM 5.56799 18.543L 3.79999 17.609C 5.03899 15.262 6.56399 13.065 8.33099 11.078L 9.82501 12.406C 8.16601 14.274 6.73299 16.339 5.56799 18.543ZM 50.624 7.49202C 48.57 6.06902 46.348 4.89804 44.019 4.01304L 44.73 2.14403C 47.21 3.08703 49.577 4.33304 51.763 5.84804L 50.624 7.49202ZM 15.425 7.45704L 14.29 5.81102C 16.481 4.30002 18.852 3.05804 21.334 2.12004L 22.041 3.99104C 19.71 4.87104 17.483 6.03804 15.425 7.45704ZM 36.77 2.22603C 34.318 1.92803 31.756 1.92302 29.298 2.21702L 29.062 0.231031C 31.674 -0.080969 34.4 -0.0759664 37.01 0.240034L 36.77 2.22603Z"/>
<path id="path1_fill" d="M 22 52L 6.00001 52C 2.69101 52 7.8125e-06 49.309 7.8125e-06 46L 7.8125e-06 6C 7.8125e-06 2.691 2.69101 0 6.00001 0L 22 0C 25.309 0 28 2.691 28 6L 28 46C 28 49.309 25.309 52 22 52ZM 6.00001 2C 3.79401 2 2.00001 3.794 2.00001 6L 2.00001 46C 2.00001 48.206 3.79401 50 6.00001 50L 22 50C 24.206 50 26 48.206 26 46L 26 6C 26 3.794 24.206 2 22 2L 6.00001 2Z"/>
<path id="path2_fill" d="M 27 36L 7.8125e-06 36L 7.8125e-06 0L 27 0L 27 2L 1.00001 2L 1.00001 34L 27 34L 27 36Z"/>
<path id="path3_fill" d="M 8.00001 7.08008e-06L 7.8125e-06 7.08008e-06L 7.8125e-06 2.00001L 8.00001 2.00001L 8.00001 7.08008e-06Z"/>
</defs>
</svg>
