<svg width="63" height="60" viewBox="0 0 63 60" version="1.1" xmlns="http://www.w3.org/2000/svg" xmlns:xlink="http://www.w3.org/1999/xlink">
<title>icons</title>
<desc>Created using Figma</desc>
<g id="Canvas" transform="translate(-283 -3058)">
<g id="icons">
<g id="Group">
<g id="Vector">
<use xlink:href="#path0_fill" transform="translate(283 3058.5)" fill="#92A1B0"/>
</g>
<g id="Vector">
<use xlink:href="#path1_fill" transform="translate(336.849 3095.04)" fill="#92A1B0"/>
</g>
<g id="Vector">
<use xlink:href="#path2_fill" transform="translate(292.46 3068.04)" fill="#92A1B0"/>
</g>
<g id="Vector">
<use xlink:href="#path3_fill" transform="translate(294.222 3075.04)" fill="#92A1B0"/>
</g>
<g id="Vector">
<use xlink:href="#path4_fill" transform="translate(336.221 3083.8)" fill="#92A1B0"/>
</g>
<g id="Vector">
<use xlink:href="#path5_fill" transform="translate(288.877 3087.03)" fill="#92A1B0"/>
</g>
<g id="Group">
<g id="Group">
<g id="Vector">
<use xlink:href="#path6_fill" transform="translate(308.662 3078.92)" fill="url(#paint6_linear)"/>
</g>
<g id="Vector">
<use xlink:href="#path7_fill" transform="translate(306.244 3078.92)" fill="url(#paint7_linear)"/>
</g>
<g id="Vector">
<use xlink:href="#path8_fill" transform="translate(306.244 3087.65)" fill="url(#paint8_linear)"/>
</g>
<g id="Vector">
<use xlink:href="#path9_fill" transform="translate(306.327 3091.23)" fill="url(#paint9_linear)"/>
</g>
</g>
<g id="Vector">
<use xlink:href="#path10_fill" transform="translate(308.662 3086.65)" fill="url(#paint10_linear)"/>
</g>
</g>
</g>
</g>
</g>
<defs>
<linearGradient id="paint6_linear" x1="0" y1="0" x2="1" y2="0" gradientUnits="userSpaceOnUse" gradientTransform="matrix(-11.673 8.15035 -8.75486 -250.376 16.0504 125.188)">
<stop offset="0" stop-color="#FBB601"/>
<stop offset="1" stop-color="#F2994A"/>
</linearGradient>
<linearGradient id="paint7_linear" x1="0" y1="0" x2="1" y2="0" gradientUnits="userSpaceOnUse" gradientTransform="matrix(-5.224 1.50002 -3.91805 -46.08 7.18302 23.04)">
<stop offset="0" stop-color="#FBB601"/>
<stop offset="1" stop-color="#F2994A"/>
</linearGradient>
<linearGradient id="paint8_linear" x1="0" y1="0" x2="1" y2="0" gradientUnits="userSpaceOnUse" gradientTransform="matrix(-5.224 1.50002 -3.91805 -46.08 7.18302 23.04)">
<stop offset="0" stop-color="#FBB601"/>
<stop offset="1" stop-color="#F2994A"/>
</linearGradient>
<linearGradient id="paint9_linear" x1="0" y1="0" x2="1" y2="0" gradientUnits="userSpaceOnUse" gradientTransform="matrix(-11.224 1.50002 -8.4181 -46.08 15.4331 23.04)">
<stop offset="0" stop-color="#FBB601"/>
<stop offset="1" stop-color="#F2994A"/>
</linearGradient>
<linearGradient id="paint10_linear" x1="0" y1="0" x2="1" y2="0" gradientUnits="userSpaceOnUse" gradientTransform="matrix(-2 7.81435 -1.50002 -240.054 2.75001 120.027)">
<stop offset="0" stop-color="#FBB601"/>
<stop offset="1" stop-color="#F2994A"/>
</linearGradient>
<path id="path0_fill" d="M 29.5 59C 13.233 59 0 45.767 0 29.5C 0 13.233 13.233 0 29.5 0C 45.767 0 59 13.233 59 29.5C 59 30.053 58.553 30.5 58 30.5C 57.447 30.5 57 30.053 57 29.5C 57 14.337 44.663 2 29.5 2C 14.337 2 2 14.337 2 29.5C 2 44.663 14.337 57 29.5 57C 38.26 57 46.296 52.97 51.547 45.941C 51.877 45.5 52.504 45.407 52.946 45.739C 53.388 46.069 53.479 46.696 53.148 47.138C 47.517 54.677 38.896 59 29.5 59Z"/>
<path id="path1_fill" d="M 0.999301 7.00189C 0.845302 7.00189 0.68827 6.96693 0.54227 6.89093C 0.0512702 6.63793 -0.141699 6.03588 0.111301 5.54388C 0.904301 4.00488 1.55431 2.3809 2.04331 0.718899C 2.19931 0.190899 2.74927 -0.117103 3.28427 0.0418969C 3.81327 0.196897 4.11728 0.752925 3.96128 1.28292C 3.43828 3.06592 2.74026 4.8079 1.88926 6.4599C 1.71126 6.8049 1.3613 7.00189 0.999301 7.00189Z"/>
<path id="path2_fill" d="M 20 40C 8.97202 40 2.19727e-05 31.028 2.19727e-05 20C 2.19727e-05 19.447 0.447022 19 1.00002 19C 1.55302 19 2.00002 19.447 2.00002 20C 2.00002 29.925 10.075 38 20 38C 29.925 38 38 29.925 38 20C 38 10.075 29.925 2.00001 20 2.00001C 15.956 2.00001 12.136 3.31 8.95199 5.788C 8.51599 6.127 7.88897 6.04802 7.54897 5.61302C 7.20997 5.17702 7.28802 4.549 7.72402 4.21C 11.262 1.456 15.507 8.54492e-06 20 8.54492e-06C 31.028 8.54492e-06 40 8.97201 40 20C 40 31.028 31.028 40 20 40Z"/>
<path id="path3_fill" d="M 0.999417 6.001C 0.858417 6.001 0.715434 5.97198 0.579434 5.90798C 0.0784338 5.67598 -0.139589 5.08098 0.0934109 4.57998C 0.790411 3.07798 1.67839 1.66101 2.73239 0.368006C 3.08239 -0.0579943 3.71143 -0.125007 4.13943 0.223993C 4.56743 0.572993 4.63141 1.20301 4.28341 1.63101C 3.33441 2.79501 2.53541 4.06998 1.90841 5.42098C 1.73741 5.78698 1.37742 6.001 0.999417 6.001Z"/>
<path id="path4_fill" d="M 4.57256 5.57292C 4.31056 5.57292 4.05953 5.46995 3.87353 5.28795L 0.300531 1.78993C -0.0944692 1.40293 -0.10046 0.769933 0.28454 0.375933C 0.67154 -0.0180666 1.30454 -0.0260578 1.69854 0.359942L 4.55657 3.15895L 7.35455 0.300952C 7.74255 -0.0940483 8.37555 -0.10107 8.76855 0.28493C 9.16355 0.67193 9.16954 1.30493 8.78454 1.69893L 5.28753 5.27193C 5.10153 5.46093 4.84955 5.56992 4.58355 5.57292C 4.57955 5.57292 4.57656 5.57292 4.57256 5.57292Z"/>
<path id="path5_fill" d="M 8.06996 5.57299C 7.80996 5.57299 7.55093 5.472 7.35493 5.272L 4.55696 2.414L 1.69893 5.21301C 1.30393 5.60101 0.672926 5.59299 0.284926 5.19699C -0.101074 4.80199 -0.094083 4.16999 0.300917 3.78299L 3.87391 0.285C 4.06291 0.0990002 4.34194 0.0399966 4.58394 -3.41797e-06C 4.84994 0.00299658 5.10292 0.110991 5.28792 0.300991L 8.78493 3.87399C 9.17093 4.26899 9.16393 4.90099 8.76893 5.28799C 8.57493 5.47899 8.32196 5.57299 8.06996 5.57299Z"/>
<path id="path6_fill" d="M 6.239 10.867L 0.999987 10.867C 0.446987 10.867 -1.26953e-05 10.42 -1.26953e-05 9.867L -1.26953e-05 0.999999C -1.26953e-05 0.446999 0.446987 -7.32422e-07 0.999987 -7.32422e-07L 6.239 -7.32422e-07C 9.235 -7.32422e-07 11.673 2.43799 11.673 5.43399C 11.673 8.42999 9.235 10.867 6.239 10.867ZM 1.99999 8.867L 6.239 8.867C 8.133 8.867 9.67302 7.32701 9.67302 5.43301C 9.67302 3.53901 8.133 1.99899 6.239 1.99899L 1.99999 1.99899L 1.99999 8.867Z"/>
<path id="path7_fill" d="M 4.22402 2L 1.00002 2C 0.447019 2 1.85547e-05 1.553 1.85547e-05 0.999999C 1.85547e-05 0.446999 0.447019 -7.32422e-07 1.00002 -7.32422e-07L 4.22402 -7.32422e-07C 4.77702 -7.32422e-07 5.22402 0.446999 5.22402 0.999999C 5.22402 1.553 4.77702 2 4.22402 2Z"/>
<path id="path8_fill" d="M 4.22402 2.00001L 1.00002 2.00001C 0.447019 2.00001 1.85547e-05 1.55301 1.85547e-05 1.00001C 1.85547e-05 0.447008 0.447019 8.05664e-06 1.00002 8.05664e-06L 4.22402 8.05664e-06C 4.77702 8.05664e-06 5.22402 0.447008 5.22402 1.00001C 5.22402 1.55301 4.77702 2.00001 4.22402 2.00001Z"/>
<path id="path9_fill" d="M 10.224 1.99999L 1.00003 1.99999C 0.447026 1.99999 2.63672e-05 1.55299 2.63672e-05 0.999985C 2.63672e-05 0.446985 0.447026 -1.46484e-05 1.00003 -1.46484e-05L 10.224 -1.46484e-05C 10.777 -1.46484e-05 11.224 0.446985 11.224 0.999985C 11.224 1.55299 10.777 1.99999 10.224 1.99999Z"/>
<path id="path10_fill" d="M 0.999987 10.419C 0.446987 10.419 -1.26953e-05 9.97201 -1.26953e-05 9.41901L -1.26953e-05 1.00001C -1.26953e-05 0.447008 0.446987 8.05664e-06 0.999987 8.05664e-06C 1.55299 8.05664e-06 1.99999 0.447008 1.99999 1.00001L 1.99999 9.41901C 1.99999 9.97201 1.55299 10.419 0.999987 10.419Z"/>
</defs>
</svg>
