<?xml version="1.0" encoding="iso-8859-1"?>
<!-- Generator: Adobe Illustrator 19.0.1, SVG Export Plug-In . SVG Version: 6.00 Build 0)  -->
<svg version="1.1" id="Layer_1" xmlns="http://www.w3.org/2000/svg" xmlns:xlink="http://www.w3.org/1999/xlink" x="0px" y="0px"
	 viewBox="0 0 78.672 63.789" style="enable-background:new 0 0 78.672 63.789;" xml:space="preserve">
<g>
	<path style="fill:#EFEFEF;" d="M34.967,7.063L30.713,0C28.272,1.495,0,12.207,0,39.617c0,7.23,0.336,24.172,18.9,24.172
		c11.187,0,13.94-10.279,13.94-13.584c0-21.977-21.382-14.178-21.382-14.178C11.458,17.957,31.263,9.184,34.967,7.063z"/>
</g>
<g>
	<path style="fill:#EFEFEF;" d="M78.672,7.063L74.418,0c-2.439,1.495-30.713,12.207-30.713,39.617c0,7.23,0.337,24.172,18.9,24.172
		c11.187,0,13.939-10.279,13.939-13.584c0-21.977-21.381-14.178-21.381-14.178C55.165,17.957,74.969,9.184,78.672,7.063z"/>
</g>
</svg>
