<?xml version="1.0" encoding="utf-8"?>
<!-- Generator: Adobe Illustrator 19.0.1, SVG Export Plug-In . SVG Version: 6.00 Build 0)  -->
<svg version="1.1" id="_x31_" xmlns="http://www.w3.org/2000/svg" xmlns:xlink="http://www.w3.org/1999/xlink" x="0px" y="0px"
	 viewBox="74.8 448.2 166.5 58.9" style="enable-background:new 74.8 448.2 166.5 58.9;" xml:space="preserve">
<style type="text/css">
	.st0{fill:#7F7F7F;}
</style>
<g>
	<path class="st0" d="M232.1,471.3c0-1.8,1.4-3.3,3.1-3.3c1.7,0,3.1,1.5,3.1,3.3s-1.4,3.3-3.1,3.3
		C233.6,474.6,232.1,473.1,232.1,471.3L232.1,471.3z M235.3,473.8c1.3,0,2.4-1.1,2.4-2.5s-1.1-2.5-2.4-2.5c-1.3,0-2.4,1.1-2.4,2.5
		C232.9,472.7,234,473.8,235.3,473.8L235.3,473.8z M234.9,472.7v-1.1h0.5l0.4,1.1h0.7l-0.5-1.3c0.3-0.1,0.5-0.4,0.5-0.7
		c0-0.3-0.1-0.6-0.3-0.7s-0.5-0.2-0.7-0.2h-1.2v2.9L234.9,472.7L234.9,472.7z M234.9,471.1h0.4c0.1,0,0.3,0,0.4-0.1
		c0.1-0.1,0.2-0.2,0.2-0.3c0-0.1-0.1-0.2-0.2-0.3c-0.1-0.1-0.3-0.1-0.4-0.1H235L234.9,471.1L234.9,471.1z"/>
	<path class="st0" d="M187.4,449.4l-0.9,5.6c-1.9-1-3.2-1.4-4.7-1.4c-3.9,0-6.7,4-6.7,9.6c0,3.9,1.9,6.3,4.9,6.3
		c1.3,0,2.7-0.4,4.5-1.3l-0.9,5.9c-1.9,0.6-3.2,0.8-4.6,0.8c-5.7,0-9.2-4.3-9.2-11.1c0-9.2,4.9-15.6,11.8-15.6
		c0.9,0,1.7,0.1,2.4,0.3l2.2,0.6C186.7,449.2,186.9,449.2,187.4,449.4z"/>
	<path class="st0" d="M170,453.2c-0.2,0-0.3-0.1-0.5-0.1c-1.7,0-2.7,0.9-4.3,3.4l0.5-3.2H161l-3.2,20.9h5.3c1.9-12.8,2.4-15,4.9-15
		c0.2,0,0.2,0,0.4,0c0.5-2.5,1.1-4.4,2-6.1L170,453.2z"/>
	<path class="st0" d="M138.6,474.1c-1.4,0.5-2.6,0.7-3.8,0.7c-2.7,0-4.1-1.6-4.1-4.6c0-0.6,0-1.2,0.1-1.9l0.3-2l0.2-1.7l2.3-14.3
		h5.2l-0.6,3.1h2.7l-0.7,5.1h-2.7l-1.4,8.7c0,0.4-0.1,0.7-0.1,0.9c0,1.1,0.5,1.6,1.8,1.6c0.6,0,1.1-0.1,1.4-0.2L138.6,474.1z"/>
	<path class="st0" d="M117.9,460c0,2.6,1.2,4.5,4,5.8c2.1,1.1,2.4,1.4,2.4,2.3c0,1.3-0.9,1.9-3,1.9c-1.6,0-3-0.3-4.7-0.8l-0.7,4.8
		l0.2,0.1l1,0.2c0.3,0.1,0.8,0.1,1.4,0.2c1.3,0.1,2.2,0.2,2.9,0.2c5.5,0,8-2.2,8-7c0-2.9-1.1-4.6-3.7-5.8c-2.2-1-2.4-1.3-2.4-2.3
		c0-1.1,0.9-1.7,2.6-1.7c1,0,2.4,0.1,3.7,0.3l0.7-4.8c-1.4-0.2-3.4-0.4-4.6-0.4C119.9,452.9,117.9,456.2,117.9,460z"/>
	<path class="st0" d="M229.1,474.3h-5l0.3-2c-1.4,1.6-2.9,2.3-4.8,2.3c-3.8,0-6.3-3.5-6.3-8.7c0-7,3.9-12.8,8.5-12.8
		c2,0,3.6,0.9,5,2.9l1.1-7.4h5.2L229.1,474.3L229.1,474.3z M221.4,469.4c2.4,0,4.2-2.9,4.2-7c0-2.7-1-4.1-2.8-4.1
		c-2.4,0-4.1,2.9-4.1,7C218.7,468,219.6,469.4,221.4,469.4z"/>
	<path class="st0" d="M155.2,473.9c-1.8,0.6-3.5,0.8-5.4,0.8c-5.8,0-8.9-3.2-8.9-9.4c0-7.2,3.9-12.5,9.2-12.5c4.3,0,7.1,3,7.1,7.6
		c0,1.5-0.2,3-0.7,5.2h-10.4c0,0.3-0.1,0.5-0.1,0.6c0,2.4,1.6,3.7,4.6,3.7c1.9,0,3.6-0.4,5.4-1.3L155.2,473.9L155.2,473.9z
		 M152.2,461.4c0-0.4,0-0.8,0-1.1c0-1.7-0.9-2.7-2.5-2.7c-1.7,0-2.9,1.3-3.3,3.8L152.2,461.4z"/>
	<polygon class="st0" points="96.9,474.3 91.6,474.3 94.6,454.5 87.9,474.3 84.3,474.3 83.9,454.7 80.8,474.3 75.8,474.3 
		79.9,448.6 87.5,448.6 87.7,464.5 92.8,448.6 100.9,448.6 	"/>
	<path class="st0" d="M110.4,465c-0.6-0.1-0.8-0.1-1.2-0.1c-3,0-4.5,1.1-4.5,3.2c0,1.3,0.7,2.1,1.9,2.1
		C108.7,470.2,110.3,468.1,110.4,465L110.4,465z M114.2,474.3h-4.3l0.1-2.2c-1.3,1.7-3.1,2.5-5.5,2.5c-2.8,0-4.8-2.3-4.8-5.7
		c0-5.1,3.4-8.1,9.2-8.1c0.6,0,1.4,0,2.1,0.2c0.2-0.7,0.2-1,0.2-1.4c0-1.4-0.9-1.9-3.4-1.9c-1.5,0-3.2,0.2-4.4,0.6l-0.7,0.2
		l-0.5,0.1l0.7-4.7c2.6-0.8,4.3-1.1,6.3-1.1c4.5,0,6.9,2.1,6.9,6.1c0,1-0.1,1.8-0.4,4.2l-1.1,7.4l-0.2,1.3l-0.1,1.1l-0.1,0.7
		L114.2,474.3z"/>
	<path class="st0" d="M196.4,465c-0.5-0.1-0.8-0.1-1.2-0.1c-3,0-4.5,1.1-4.5,3.2c0,1.3,0.7,2.1,1.9,2.1
		C194.8,470.2,196.3,468.1,196.4,465L196.4,465z M200.2,474.3h-4.3l0.1-2.2c-1.3,1.7-3.1,2.5-5.5,2.5c-2.8,0-4.8-2.3-4.8-5.7
		c0-5.1,3.4-8.1,9.2-8.1c0.6,0,1.4,0,2.1,0.2c0.2-0.7,0.2-1,0.2-1.4c0-1.4-0.9-1.9-3.4-1.9c-1.5,0-3.2,0.2-4.3,0.6l-0.7,0.2
		l-0.5,0.1l0.7-4.7c2.6-0.8,4.3-1.1,6.3-1.1c4.5,0,6.9,2.1,6.9,6.1c0,1-0.1,1.8-0.4,4.2l-1.1,7.4l-0.2,1.3l-0.1,1.1l-0.1,0.7
		L200.2,474.3z"/>
	<path class="st0" d="M214.8,453.2c-0.2,0-0.3-0.1-0.5-0.1c-1.7,0-2.7,0.9-4.3,3.4l0.5-3.2h-4.7l-3.2,20.9h5.3
		c1.9-12.8,2.4-15,4.9-15c0.2,0,0.2,0,0.4,0c0.5-2.5,1.1-4.4,2-6.1L214.8,453.2z"/>
	<path class="st0" d="M192.8,494.6c0,4.7-1.5,7.5-3.8,7.5c-1.7,0.1-2.7-1.8-2.7-4.7c0-3.3,1.5-7.1,3.9-7.1
		C192.2,490.4,192.8,492.4,192.8,494.6L192.8,494.6z M198,494.7c0-5.3-2.6-9.4-7.5-9.4c-5.6,0-9.3,5-9.3,12.3c0,5.3,2.2,9.6,7.5,9.6
		C194.1,507.2,198,503.4,198,494.7z"/>
	<path class="st0" d="M182.9,481.6l-0.8,5.6c-1.7-1-3-1.4-4.4-1.4c-3.7,0-6.2,4-6.2,9.6c0,3.9,1.7,6.3,4.6,6.3
		c1.2,0,2.5-0.4,4.2-1.3l-0.8,5.9c-1.8,0.6-3,0.8-4.3,0.8c-5.3,0-8.6-4.3-8.6-11.1c0-9.2,4.5-15.6,11-15.6c0.8,0,1.6,0.1,2.2,0.3
		l2,0.6C182.3,481.4,182.5,481.4,182.9,481.6z"/>
	<path class="st0" d="M150.5,485.5c-0.1,0-0.3-0.1-0.5-0.1c-1.6,0-2.5,0.9-4,3.4l0.4-3.2H142l-3,20.9h4.9c1.8-12.8,2.2-15,4.6-15
		c0.1,0,0.2,0,0.4,0c0.4-2.5,1-4.4,1.9-6.1L150.5,485.5z"/>
	<path class="st0" d="M214.4,506.3h-4.6l0.2-2c-1.3,1.6-2.7,2.3-4.5,2.3c-3.6,0-5.9-3.5-5.9-8.7c0-6.9,3.7-12.8,8-12.8
		c1.9,0,3.4,0.9,4.7,2.9l1.1-7.4h4.8L214.4,506.3L214.4,506.3z M207.2,501.4c2.3,0,3.9-2.9,3.9-7.1c0-2.7-0.9-4.1-2.6-4.1
		c-2.2,0-3.8,2.9-3.8,7C204.7,500,205.5,501.4,207.2,501.4z"/>
	<path class="st0" d="M104.6,506.2c-1.7,0.6-3.3,0.9-5,0.9c-5.5,0-8.3-3.2-8.3-9.4c0-7.2,3.6-12.5,8.6-12.5c4,0,6.6,3,6.6,7.6
		c0,1.5-0.2,3-0.6,5.2h-9.8c0,0.3,0,0.5,0,0.7c0,2.4,1.5,3.7,4.3,3.7c1.8,0,3.3-0.4,5.1-1.3L104.6,506.2L104.6,506.2z M101.9,493.8
		c0-0.4,0-0.8,0-1.1c0-1.7-0.9-2.7-2.3-2.7c-1.6,0-2.7,1.3-3.1,3.7L101.9,493.8z"/>
	<path class="st0" d="M162.8,506.2c-1.7,0.6-3.3,0.9-5,0.9c-5.5,0-8.3-3.2-8.3-9.4c0-7.2,3.6-12.5,8.6-12.5c4,0,6.6,3,6.6,7.6
		c0,1.5-0.2,3-0.6,5.2h-9.7c0,0.3,0,0.5,0,0.7c0,2.4,1.5,3.7,4.3,3.7c1.8,0,3.3-0.4,5.1-1.3L162.8,506.2L162.8,506.2z M160.1,493.8
		c0-0.4,0.1-0.8,0.1-1.1c0-1.7-0.9-2.7-2.3-2.7c-1.6,0-2.7,1.3-3.1,3.7L160.1,493.8z"/>
	<path class="st0" d="M231.1,506.2c-1.7,0.6-3.3,0.9-5,0.9c-5.5,0-8.3-3.2-8.3-9.4c0-7.2,3.6-12.5,8.6-12.5c4,0,6.6,3,6.6,7.6
		c0,1.5-0.2,3-0.6,5.2h-9.7c0,0.3,0,0.5,0,0.7c0,2.4,1.5,3.7,4.3,3.7c1.8,0,3.3-0.4,5.1-1.3L231.1,506.2L231.1,506.2z M228.4,493.8
		c0-0.4,0-0.8,0-1.1c0-1.7-0.9-2.7-2.3-2.7c-1.6,0-2.7,1.3-3.1,3.7L228.4,493.8z"/>
	<path class="st0" d="M90.1,486.4c-1-0.6-2.3-1.2-4.1-1.2c-2,0-3.6,0.4-3.6,2.5c0,3.7,7.2,2.3,7.2,10.3c0,7.3-4.8,9.1-9.1,9.1
		c-1.9,0-4.1-0.6-5.7-1.4l1.2-5.3c1,0.9,3,1.5,4.6,1.5c1.5,0,4-0.4,4-3.1c0-4.2-7.2-2.6-7.2-10c0-6.8,4.2-8.8,8.3-8.8
		c2.3,0,4.4,0.3,5.7,1.2L90.1,486.4z"/>
	<path class="st0" d="M118.9,506.2c-1,0.5-2.4,0.8-4.3,0.8c-4.3,0-6.9-4.3-6.9-9.5c0-6.8,3.8-12.2,9.5-12.2c1.2,0,3.1,0.5,4.6,1.4
		l-1.1,5c-1-0.7-2.1-1.1-3.3-1.1c-2.6,0-4.5,2.4-4.5,6.7c0,2.5,1.4,4.5,3.5,4.5c1.3,0,2.2-0.3,3.3-0.9L118.9,506.2z"/>
	<path class="st0" d="M137.2,501c-0.3,1.8-0.5,3.5-0.6,5.4h-4.7l0.4-3.4l0,0c-1.5,2.3-3,3.9-5.7,3.9c-3,0-4.6-3.1-4.6-7.2
		c0-1.4,0.1-2.2,0.4-4.4l1.3-9.7h5.2l-1.4,9.7c-0.1,1-0.3,2.1-0.3,3.2c0,1.2,0.6,2.5,2,2.4c2.2,0,3.4-2.6,3.8-5.7l1.4-9.6h5.1
		L137.2,501z"/>
	<polygon class="st0" points="236,506.2 235.2,506.2 235.2,502.7 234.1,502.7 234.1,502 237.1,502 237.1,502.7 236,502.7 	"/>
	<polygon class="st0" points="241.3,506.2 240.5,506.2 240.5,502.7 240.5,502.7 239.8,506.2 239,506.2 238.3,502.7 238.3,502.7 
		238.3,506.2 237.6,506.2 237.6,502 238.7,502 239.4,505.3 239.4,505.3 240.1,502 241.3,502 	"/>
</g>
</svg>
