<?xml version="1.0" encoding="utf-8"?>
<!-- Generator: Adobe Illustrator 19.0.1, SVG Export Plug-In . SVG Version: 6.00 Build 0)  -->
<svg version="1.1" id="_x31_" xmlns="http://www.w3.org/2000/svg" xmlns:xlink="http://www.w3.org/1999/xlink" x="0px" y="0px"
	 viewBox="379.6 440.8 110 47.3" style="enable-background:new 379.6 440.8 110 47.3;" xml:space="preserve">
<style type="text/css">
	.st0{fill:#7F7F7F;}
</style>
<g>
	<polygon class="st0" points="428.8,487.6 432.4,465.8 438,465.8 434.5,487.6 	"/>
	<path class="st0" d="M454.9,466.4c-1.1-0.4-2.9-0.9-5-0.9c-5.6,0-9.5,3-9.5,7.2c0,3.1,2.8,4.9,4.9,5.9c2.2,1.1,2.9,1.8,2.9,2.7
		c0,1.5-1.8,2.1-3.4,2.1c-2.3,0-3.5-0.3-5.3-1.1l-0.7-0.3l-0.8,4.9c1.3,0.6,3.7,1.1,6.3,1.2c5.9,0,9.8-2.9,9.8-7.5
		c0-2.5-1.5-4.4-4.7-5.9c-2-1-3.2-1.7-3.2-2.7c0-0.9,1-1.9,3.2-1.9c1.8,0,3.2,0.4,4.2,0.8l0.5,0.3L454.9,466.4z"/>
	<path class="st0" d="M462.4,479.9c0.5-1.3,2.2-6.1,2.2-6.1c0,0.1,0.5-1.3,0.8-2.1l0.4,1.9c0,0,1.1,5.2,1.3,6.3
		C466.2,479.9,463.5,479.9,462.4,479.9L462.4,479.9z M469.4,465.8H465c-1.4,0-2.4,0.4-3,1.8l-8.4,20h5.9c0,0,1-2.7,1.2-3.3
		c0.6,0,6.4,0,7.2,0c0.2,0.8,0.7,3.3,0.7,3.3h5.2L469.4,465.8z"/>
	<path class="st0" d="M424.1,465.8l-5.5,14.9l-0.6-3c-1.4-3.7-4.3-7.6-7.8-9.2l5,19.1h6l8.9-21.8H424.1z"/>
	<path class="st0" d="M413.5,465.8h-9.1l-0.1,0.4c7.1,1.8,11.7,6.2,13.7,11.5l-2-10C415.7,466.3,414.7,465.9,413.5,465.8z"/>
	<polygon class="st0" points="387.3,460.6 383.8,460.6 379.6,441.9 383.6,441.2 386.4,455.8 393.6,441.4 397.5,441.4 	"/>
	<path class="st0" d="M401,449.1c-1.3,0-2.6,1-3.1,3.2h5.3C403.2,450.3,402.6,449.1,401,449.1L401,449.1z M406,454.4h-8.6
		c-0.2,2.6,1,3.7,3,3.7c1.7,0,3.2-0.6,4.8-1.7v2.6c-1.6,1-3.4,1.6-5.6,1.6c-3.7,0-6.2-2.1-5.5-6.9c0.7-4.3,3.7-7,7.2-7
		c4,0,5.3,3,4.8,6.8C406.1,453.9,406.1,454.3,406,454.4z"/>
	<path class="st0" d="M411.6,452.8l-1.2,7.7h-3.3l2.1-13.4h2.8v2.7c1.1-1.5,2.7-2.8,4.7-3v3.3C414.7,450.3,412.8,451.4,411.6,452.8z
		"/>
	<path class="st0" d="M420.8,444.9c-1.1,0-1.9-0.8-1.7-1.9c0.2-1.1,1.2-1.9,2.3-1.9c1.1,0,1.8,0.8,1.7,1.9
		C422.9,444.1,421.9,444.9,420.8,444.9L420.8,444.9z M416.7,460.5l2.1-13.4h3.3l-2.1,13.4H416.7z"/>
	<path class="st0" d="M431.3,443.5c-1.1,0-1.8,0.5-2,1.7l-0.3,2h2.5v2.7h-3l-1.6,10.6h-3.3l1.6-10.6h-1.9l0.4-2.7h1.9l0.3-2.3
		c0.5-3,2.5-4.1,5.2-4.1c0.6,0,1,0.1,1.3,0.1v2.7C432.3,443.5,431.8,443.5,431.3,443.5z"/>
	<path class="st0" d="M435.4,444.9c-1.1,0-1.9-0.8-1.7-1.9c0.2-1.1,1.2-1.9,2.3-1.9c1.1,0,1.8,0.8,1.7,1.9
		C437.5,444.1,436.5,444.9,435.4,444.9L435.4,444.9z M431.3,460.5l2.1-13.4h3.3l-2.1,13.4H431.3z"/>
	<path class="st0" d="M444.5,449.1c-1.3,0-2.6,1-3.1,3.2h5.3C446.7,450.3,446.1,449.1,444.5,449.1L444.5,449.1z M449.5,454.4H441
		c-0.2,2.6,1,3.7,3,3.7c1.7,0,3.2-0.6,4.8-1.7v2.6c-1.6,1-3.4,1.6-5.6,1.6c-3.7,0-6.2-2.1-5.4-6.9c0.7-4.3,3.7-7,7.2-7
		c4,0,5.3,3,4.8,6.8C449.6,453.9,449.6,454.3,449.5,454.4z"/>
	<path class="st0" d="M460.5,450.2c-0.8-0.4-1.4-0.6-2.5-0.6c-1.7,0-3.2,1.4-3.7,4.3c-0.4,2.6,0.5,3.8,2,3.8c1.2,0,2.3-0.7,3.3-1.8
		L460.5,450.2L460.5,450.2z M459.3,460.5v-1.8c-1.1,1.1-2.6,2.1-4.4,2.1c-2.8,0-4.7-2.1-4-6.6c0.8-5,3.9-7.2,6.9-7.2
		c1.3,0,2.3,0.2,3,0.5l1-6.4l3.4-0.5l-3.1,20h-2.8V460.5z"/>
	<path class="st0" d="M474.2,452.4c-0.8,0-1.7,0.6-2.4,1.3l-0.7,4.6c0.5,0.2,0.8,0.3,1.6,0.3c1.6,0,2.7-1,3.1-3.3
		C476,453.3,475.3,452.4,474.2,452.4L474.2,452.4z M472.3,460.6c-1.6,0-2.8-0.3-4-0.7l2.2-14.2l2.6-0.4l-0.9,6.1
		c0.8-0.7,1.8-1.3,3.1-1.3c2.1,0,3.6,1.6,3,5C477.7,458.9,475.4,460.6,472.3,460.6z"/>
	<path class="st0" d="M484.2,461c-1.3,2.5-2.5,3.3-4.5,3.3c-0.4,0-0.7,0-0.9-0.1v-2.1c0.3,0.1,0.7,0.2,1.1,0.2
		c0.7,0,1.4-0.3,1.8-1.1l0.3-0.7l-2.1-10l2.7-0.3l1.2,7.2l3.3-7.1h2.5L484.2,461z"/>
</g>
</svg>
