<svg xmlns="http://www.w3.org/2000/svg" viewBox="0 0 142.67 140.54"><defs><style>.cls-1{fill:#fff;stroke:#231f20;stroke-miterlimit:10;}</style></defs><title>discount__clock</title><g id="Слой_2" data-name="Слой 2"><g id="Layer_2" data-name="Layer 2"><path class="cls-1" d="M72.33,22V1.5a1,1,0,0,0-2,0V22l1,0Z"/><path class="cls-1" d="M46.27,28.94c.57-.35,1.15-.67,1.73-1L37.76,10.24a1,1,0,0,0-1.73,1Z"/><path class="cls-1" d="M11,35.23a1,1,0,0,0,.36,1.37L29,46.86c.32-.58.65-1.16,1-1.73L12.37,34.86A1,1,0,0,0,11,35.23Z"/><path class="cls-1" d="M106.91,9a1,1,0,0,0-1.37.36L94.74,28c.58.32,1.16.65,1.73,1l10.8-18.6A1,1,0,0,0,106.91,9Z"/><path class="cls-1" d="M132.28,36.17a1,1,0,0,0-1-1.73L112.67,45.21c.35.57.67,1.15,1,1.73Z"/><path class="cls-1" d="M23,70.27c0-.33,0-.67,0-1H1.5a1,1,0,0,0,0,2H23C23,70.94,23,70.61,23,70.27Z"/><path class="cls-1" d="M141.17,69.27H119.64c0,.33,0,.67,0,1s0,.67,0,1h21.53a1,1,0,0,0,0-2Z"/><path class="cls-1" d="M131.3,103.95,113.62,93.68c-.32.58-.65,1.16-1,1.73l17.68,10.27a1,1,0,0,0,1-1.73Z"/><path class="cls-1" d="M10.38,104.37a1,1,0,1,0,1,1.73L30,95.34c-.35-.57-.67-1.15-1-1.73Z"/><path class="cls-1" d="M96.4,111.6c-.57.35-1.15.67-1.73,1l10.24,17.7a1,1,0,0,0,1.73-1Z"/><path class="cls-1" d="M35.39,130.15a1,1,0,1,0,1.73,1l10.8-18.6c-.58-.32-1.16-.65-1.73-1Z"/><path class="cls-1" d="M70.33,118.58V139a1,1,0,0,0,2,0V118.58l-1,0Z"/><path class="cls-1" d="M105.24,52.39a1.5,1.5,0,1,0-1.5-2.6L75.31,66.24h0a5.66,5.66,0,0,0-7.95,0L47,54.41A1.5,1.5,0,0,0,45.51,57L65.86,68.83a5.67,5.67,0,1,0,11,0ZM75.84,66.85l-.06-.08Zm.39.59,0,0Zm-9.78,0,0,0Zm.43-.62,0,.07Zm4.45,6.17A2.67,2.67,0,1,1,74,70.27,2.67,2.67,0,0,1,71.33,72.94Z"/></g></g></svg>