<svg id="Layer_1" data-name="Layer 1" xmlns="http://www.w3.org/2000/svg" viewBox="0 0 22.07 21.21"><defs><style>.cls-1{fill:#826550;}</style></defs><title>icon-beard</title><path class="cls-1" d="M21.81,0h-.1c-1,3.3-1.25,7.32-4,8.85-.51-1.44-1.76-2.1-3.19-2.73A9.47,9.47,0,0,0,11.68,5a.94.94,0,0,0-.64.13A.93.93,0,0,0,10.39,5,9.46,9.46,0,0,0,7.56,6.12c-1.43.63-2.68,1.29-3.19,2.73C1.61,7.32,1.35,3.3.36,0H.26A6.29,6.29,0,0,0,0,1,110.51,110.51,0,0,0,.82,13.22c.53,2.7,2.61,4.64,4.63,5.92C6.86,20,9.1,21.21,11,21.21S15.2,20,16.62,19.14c2-1.27,4.1-3.22,4.63-5.92A110.26,110.26,0,0,0,22.07,1,6.1,6.1,0,0,0,21.81,0Zm-6,12a1.79,1.79,0,0,1-1.44,1.49c-1.28.07-1.93-1.89-3.37-1.88s-2.09,1.95-3.37,1.88A1.79,1.79,0,0,1,6.22,12a3.24,3.24,0,0,1,.72-2.42c.47-.46,1.21-.4,2-.51A3.7,3.7,0,0,0,11,8.26h0a3.7,3.7,0,0,0,2.08.84c.8.12,1.53.06,2,.51A3.24,3.24,0,0,1,15.84,12Z"/></svg>