<svg style="display:none" xmlns="http://www.w3.org/2000/svg"><defs><style>.cls-1{fill:#826550}</style><style>.cls-1{fill:#826550}</style><style>.cls-1{fill:#826550}</style><style>.cls-1{fill:#826550}</style><style>.cls-1{fill:#826550}</style></defs><symbol id="icon-beard--admiral" viewBox="0 0 51.48 49.48"><title>icon-beard--admiral</title><g id="&#x421;&#x43B;&#x43E;&#x439;_2" data-name="&#x421;&#x43B;&#x43E;&#x439; 2"><path class="cls-1" d="M50.88 0h-.24c-2.31 7.69-2.93 17.07-9.36 20.64-1.19-3.35-4.11-4.89-7.44-6.36-2.12-.93-4.55-2.56-6.6-2.64a2.19 2.19 0 0 0-1.5.32 2.19 2.19 0 0 0-1.5-.32c-2.05.08-4.48 1.71-6.6 2.64-3.33 1.47-6.25 3-7.44 6.36C3.76 17.07 3.15 7.69.84 0H.6A14.55 14.55 0 0 0 0 2.4c0 1.92.54 21.46 1.92 28.44 1.24 6.29 6.08 10.83 10.8 13.8 3.29 2.07 8.51 4.84 13 4.84s9.73-2.77 13-4.84c4.72-3 9.56-7.51 10.8-13.8 1.38-7 1.92-26.52 1.92-28.44a14.54 14.54 0 0 0-.56-2.4zM37 28.06c-.25 1.55-1.66 3.39-3.36 3.48-3 .17-4.51-4.42-7.86-4.38s-4.88 4.55-7.86 4.38c-1.7-.1-3.12-1.93-3.36-3.48a7.59 7.59 0 0 1 1.68-5.64c1.1-1.07 2.82-.93 4.68-1.2a8.6 8.6 0 0 0 4.86-1.95 8.63 8.63 0 0 0 4.86 1.95c1.86.27 3.58.13 4.68 1.2A7.58 7.58 0 0 1 37 28.06z" id="Layer_1" data-name="Layer 1"/></g></symbol><symbol id="icon-beard--boyar" viewBox="0 0 57 97.68"><title>icon-beard--boyar</title><g id="&#x421;&#x43B;&#x43E;&#x439;_2" data-name="&#x421;&#x43B;&#x43E;&#x439; 2"><path class="cls-1" d="M51.12 15.24C50.73 9.79 50.51 4.39 48.6 0c-.76 0-1.53 7.31-2.28 10.92-1.48 7.14-3.71 8.28-4.44 8.28-.88-3.86-4.38-4.2-7.8-5.88a11.1 11.1 0 0 0-3.6-1.2 14.58 14.58 0 0 0-2 .12 14.4 14.4 0 0 0-2-.12 11.12 11.12 0 0 0-3.6 1.2c-3.42 1.64-6.94 2-7.8 5.88-.72 0-3-1.14-4.44-8.28C9.93 7.31 9.16 0 8.4 0 6.49 4.39 6.27 9.79 5.88 15.24 5 38.78 0 51.53 0 62.4c0 26.07 11.71 35.28 28.5 35.28S57 88.47 57 62.4c0-10.87-5-23.62-5.88-47.16zM34.44 25c-2.79 1.17-5.35-.71-5.88-.72h-.12c-.53 0-3.09 1.89-5.88.72-.79-3.58 2.4-4 5.94-3.9 3.5-.18 6.73.28 5.94 3.9z" id="Layer_1" data-name="Layer 1"/></g></symbol><symbol id="icon-beard--lumberjack" viewBox="0 0 57.68 68.64"><title>icon-beard--lumberjack</title><g id="&#x421;&#x43B;&#x43E;&#x439;_2" data-name="&#x421;&#x43B;&#x43E;&#x439; 2"><path class="cls-1" d="M51.6 22.2c.12-1.7.47-3.51.72-5.4.68-5.43 1.6-11.67-.12-16.8H52c-1.36 3.74-1.3 8.35-2.2 12.36a19.72 19.72 0 0 1-3.24 7.56c-.53.69-1.06 1.54-1.92 1.8-.64-3.92-4.28-4.94-7.64-6.36-2.13-.89-4-2-6.12-2.16a10.78 10.78 0 0 0-2 .23 10.62 10.62 0 0 0-2-.23c-2.15.14-4 1.27-6.12 2.16-3.4 1.42-7 2.44-7.68 6.36-.86-.25-1.39-1.11-1.92-1.8a19.72 19.72 0 0 1-3.24-7.56C7 8.35 7 3.74 5.72 0h-.24c-1.72 5.13-.83 11.37-.12 16.8.25 1.89.6 3.7.72 5.4.79 11.05-7 23.12-6 28.92.93 7.53 8.4 9.4 14.16 12.36 4.35 2.24 8.31 5 13.32 5.16h2.56c5-.21 9-2.92 13.32-5.16 5.76-3 13.23-4.83 14.16-12.36.95-5.8-6.79-17.87-6-28.92zm-22.76 3.75a35.92 35.92 0 0 1-7.16-.5c.66-2.05 4-1.56 7.08-1.56h.16c3 0 6.42-.49 7.08 1.56a36 36 0 0 1-7.16.5z" id="Layer_1" data-name="Layer 1"/></g></symbol><symbol id="icon-beard--polar" viewBox="0 0 62.4 78.49"><title>icon-beard--polar</title><g id="&#x421;&#x43B;&#x43E;&#x439;_2" data-name="&#x421;&#x43B;&#x43E;&#x439; 2"><path class="cls-1" d="M62.4 42c0-5.21-2.37-7.78-3.6-10a56 56 0 0 1-4.2-17.6C54.53 9.49 52.91 2 51.72 0c-.86 0-1.52 7.78-2.28 11.64-1.43 7-3.77 8.93-4.44 9-.76-2.81-4.11-7.36-13.68-7.72h-.25c-9.56.36-12.92 4.92-13.67 7.72-.67-.07-3-2-4.44-9C12.2 7.78 11.54 0 10.68 0 9.49 2 7.87 9.49 7.8 14.4A56.06 56.06 0 0 1 3.6 32C2.37 34.23 0 36.79 0 42c0 3.74 5.2 7.2 5.64 11.4.12 1.22 0 2.35.12 3.36 2 17.48 17.87 21.73 25.44 21.73s23.44-4.24 25.44-21.73c.15-1 0-2.14.12-3.36.44-4.2 5.64-7.65 5.64-11.4zM33.24 26.76a20.63 20.63 0 0 0-4.08 0c-1.73.34-5.76 1-5.76-1.08 0-1.07 6.72-2.29 7.8-2.29s7.8 1.22 7.8 2.29c0 2.07-4 1.42-5.76 1.08z" id="Layer_1" data-name="Layer 1"/></g></symbol><symbol id="icon-beard--sage" viewBox="0 0 44.66 104.78"><title>icon-beard--polar</title><g id="&#x421;&#x43B;&#x43E;&#x439;_2" data-name="&#x421;&#x43B;&#x43E;&#x439; 2"><path class="cls-1" d="M43.39 0h-.12c-2.82 21.53-5.38 22.56-7 22.68-1.43.11-3.64-1.77-4.92-2.52a15.89 15.89 0 0 0-9.06-2.54 15.9 15.9 0 0 0-9.06 2.54c-1.28.75-3.49 2.63-4.92 2.52C6.77 22.56 4.2 21.53 1.39 0h-.12C-.8 12.21-.29 50.2 2.47 63.6c2.61 18.52 10.11 35.1 13.44 39.6.68 1 3.53 1.57 6.42 1.58s5.74-.54 6.42-1.58c3.33-4.5 10.83-21.08 13.44-39.6 2.76-13.4 3.27-51.39 1.2-63.6zM22.33 28.15a100.21 100.21 0 0 0-10.14.53c1.13-1.75 9-3.24 10.14-3.45 1.15.21 9 1.7 10.14 3.45a100.23 100.23 0 0 0-10.14-.53z" id="Layer_1" data-name="Layer 1"/></g></symbol></svg>