<?xml version="1.0" encoding="utf-8"?>
<!-- Generator: Adobe Illustrator 19.0.1, SVG Export Plug-In . SVG Version: 6.00 Build 0)  -->
<svg version="1.1" id="_x31_" xmlns="http://www.w3.org/2000/svg" xmlns:xlink="http://www.w3.org/1999/xlink" x="0px" y="0px"
	 viewBox="-81 728.5 157.7 64.8" style="enable-background:new -81 728.5 157.7 64.8;" xml:space="preserve">
<style type="text/css">
	.st0{fill:#7B7B7B;}
	.st1{fill:#7C7C7C;}
</style>
<g>
	<path class="st0" d="M-12.3,748.7h-15.6c0.9,5.1,5.4,9,10.9,9h12.1c0.1-0.5,0.2-1,0.2-1.5C-4.7,752.1-8.1,748.7-12.3,748.7z"/>
	<g>
		<path class="st1" d="M-39.9,748.7h-7c-1.8,0-3.4,1.2-3.9,2.9l-2.9,10.2h-0.5l-2.9-10.2c-0.5-1.7-2.1-2.9-3.9-2.9h-7v22.1h7v-13.1
			h0.5l4,13.1h5l4-13.1h0.5v13.1h7L-39.9,748.7L-39.9,748.7z"/>
		<rect x="-36.9" y="748.7" class="st1" width="7" height="22.1"/>
		<path class="st1" d="M-5.2,758.7h-21.7v12.1h7v-7h3.4l3.7,7h8l-5-7.5C-7.6,762.5-5.9,760.9-5.2,758.7z"/>
	</g>
	<path class="st0" d="M2.4,764.8l0.8-2.6c0.2-0.9,0.5-2.3,0.5-2.3l0,0c0,0,0.3,1.5,0.5,2.3l0.8,2.6H2.4L2.4,764.8z M5.5,756.8
		L5.5,756.8H2l-4.6,13.5h3.4l0.8-2.8h4.2l0.8,2.8H10L5.5,756.8z"/>
	<path class="st0" d="M17.5,756.5c-4.2,0-7.1,3-7.1,7s2.7,7,7.1,7c2.5,0,4.3-1,5.4-2.3l-1.7-2.4c-0.9,0.9-2.2,1.7-3.6,1.7
		c-2.6,0-3.8-2.1-3.8-4.1c0-1.9,1.1-3.9,3.8-3.9c1.2,0,2.5,0.6,3.4,1.4l1.5-2.5C21.3,757.2,19.3,756.5,17.5,756.5z"/>
	<path class="st0" d="M30.7,756.5c-4.2,0-7.1,3-7.1,7s2.7,7,7.1,7c2.5,0,4.3-1,5.4-2.3l-1.7-2.4c-0.9,0.9-2.2,1.7-3.6,1.7
		c-2.6,0-3.8-2.1-3.8-4.1c0-1.9,1.1-3.9,3.8-3.9c1.2,0,2.5,0.6,3.4,1.4l1.5-2.5C34.5,757.2,32.5,756.5,30.7,756.5z"/>
	<polygon class="st0" points="46.3,756.8 37.8,756.8 37.8,770.3 46.6,770.3 46.6,767.5 41.2,767.5 41.2,764.9 45.3,764.9 
		45.3,762.1 41.2,762.1 41.2,759.6 46.3,759.6 	"/>
	<path class="st0" d="M62.7,763.2H48.9v7.1h3.3v-4.2h6.4C60.6,766.2,62.1,765,62.7,763.2z"/>
	<path class="st1" d="M62.7,761.2c-0.2-2.1-1.7-3.8-3.7-4.3c-1.1-0.3-2.3-0.1-3.3-0.1c-2.7,0-5.4,0-8.1,0c0.8,3.7,3.8,5.9,7.5,5.9
		c1.6,0,3.3,0,4.9,0c0.7,0,1.4,0,2.1,0c0.2,0,0.4,0,0.6,0C62.7,762.2,62.7,761.4,62.7,761.2C62.7,761.1,62.7,761.3,62.7,761.2z"/>
	<polygon class="st0" points="76.7,756.3 63.9,756.3 63.9,759.5 68.5,759.5 68.5,771.4 72.2,771.4 72.2,759.5 76.7,759.5 	"/>
	<path class="st0" d="M-48.6,728.5c-17.9,0-32.4,14.5-32.4,32.4c0,17.9,14.5,32.4,32.4,32.4c9.9,0,18.8-4.5,24.7-11.5h97.6
		c0.1-0.4,0.1-0.9,0.1-1.3c0-3.4-2.1-6.2-4.8-6.5c-0.1,0-0.5,0-0.5,0h-11h-84.7l-0.2,0.3c-4.4,7.1-12.3,11.8-21.2,11.8
		c-13.8,0-25.1-11.3-25.1-25.1c0-13.8,11.2-25.1,25.1-25.1c8.4,0,15.8,4.1,20.4,10.5h8.5C-25.1,735.7-36,728.5-48.6,728.5z"/>
</g>
</svg>
