<?xml version="1.0" encoding="utf-8"?>
<!-- Generator: Adobe Illustrator 19.0.1, SVG Export Plug-In . SVG Version: 6.00 Build 0)  -->
<svg version="1.1" id="_x31_" xmlns="http://www.w3.org/2000/svg" xmlns:xlink="http://www.w3.org/1999/xlink" x="0px" y="0px"
	 viewBox="-215.4 641.7 89.1 25.1" style="enable-background:new -215.4 641.7 89.1 25.1;" xml:space="preserve">
<style type="text/css">
	.st0{fill:#797979;}
	.st1{fill:url(#SVGID_1_);}
</style>
<g>
	<path class="st0" d="M-207.6,666.8h-7.8v-25.1h7.8c3.5,0,4.2,2.6,4.6,3.9l3.2,10.8c0.1,0.2,0.1,0.4,0.3,0.4c0.2,0,0.3-0.1,0.3-0.4
		l3.2-10.8c0.4-1.3,1.2-3.9,4.6-3.9h7.8v25.1h-7.8V652c-0.1-0.4-0.7-0.3-0.8,0l-4.7,14.8h-5.4L-207,652c-0.1-0.3-0.6-0.4-0.8,0v14.8
		H-207.6z"/>
	<path class="st0" d="M-172.2,641.7h-7.8v25.1h7.8c1.3,0,2.1-0.6,3.4-3.5l5.2-11.4c0.1-0.3,0.7-0.4,0.8,0v14.9h7.8v-25.1
		c-2.6,0-5.2,0-7.8,0c-1.7,0.1-2.6,2.1-3.2,3.5l-5.4,11.3c-0.1,0.3-0.6,0.4-0.8,0C-172.2,656.5-172.2,641.7-172.2,641.7z"/>
	<path class="st0" d="M-151.3,653.2h24.4c-0.8,2.4-3.6,5.6-8,5.6h-8.6v8h-7.8V653.2L-151.3,653.2z"/>
	
		<linearGradient id="SVGID_1_" gradientUnits="userSpaceOnUse" x1="-126.5257" y1="646.5612" x2="-152.1006" y2="647.0554" gradientTransform="matrix(1 0 0 1 0 -1.998901e-002)">
		<stop  offset="0" style="stop-color:#5D5D5D"/>
		<stop  offset="1" style="stop-color:#767676"/>
	</linearGradient>
	<path class="st1" d="M-126.5,651.9h-12.9c-6.2,0-11.9-3.4-12.9-10.2h17.4C-129.6,641.7-125.5,646.6-126.5,651.9z"/>
</g>
</svg>
