<?xml version="1.0" encoding="utf-8"?>
<!-- Generator: Adobe Illustrator 19.0.1, SVG Export Plug-In . SVG Version: 6.00 Build 0)  -->
<svg version="1.1" id="_x31_" xmlns="http://www.w3.org/2000/svg" xmlns:xlink="http://www.w3.org/1999/xlink" x="0px" y="0px"
	 viewBox="108.3 707.6 77.3 59.7" style="enable-background:new 108.3 707.6 77.3 59.7;" xml:space="preserve">
<style type="text/css">
	.st0{fill:#858585;}
	.st1{fill:#494949;}
	.st2{fill:#A9A9A9;}
</style>
<path d="M183.9,766.7v0.2h0.1h0.1c0,0,0,0,0-0.1c0,0,0,0,0-0.1c0,0,0,0-0.1,0H183.9L183.9,766.7z M184.1,766.6c0.1,0,0.1,0,0.2,0
	l0.1,0.1v0.1c0,0-0.1,0-0.1,0.1l0.2,0.2h-0.1l-0.2-0.2h-0.1v0.2H184v-0.6L184.1,766.6L184.1,766.6z M184,767.4c-0.1,0-0.1,0-0.2,0
	s-0.1-0.1-0.2-0.1c0,0-0.1-0.1-0.1-0.2s0-0.1,0-0.2s0-0.1,0-0.2s0.1-0.1,0.1-0.2c0,0,0.1-0.1,0.2-0.1s0.1,0,0.2,0s0.1,0,0.2,0
	s0.1,0.1,0.2,0.1c0,0,0.1,0.1,0.1,0.2s0,0.1,0,0.2s0,0.1,0,0.2s-0.1,0.1-0.1,0.2c0,0-0.1,0.1-0.2,0.1
	C184.2,767.4,184.1,767.4,184,767.4L184,767.4z M184,766.3c0.1,0,0.2,0,0.2,0c0.1,0,0.1,0.1,0.2,0.1c0.1,0.1,0.1,0.1,0.1,0.2
	s0,0.2,0,0.2c0,0.1,0,0.2,0,0.2c0,0.1-0.1,0.1-0.1,0.2c-0.1,0.1-0.1,0.1-0.2,0.1s-0.2,0-0.2,0c-0.1,0-0.2,0-0.3,0
	c-0.1,0-0.1-0.1-0.2-0.1c-0.1-0.1-0.1-0.1-0.1-0.2s0-0.2,0-0.2c0-0.1,0-0.2,0-0.2c0-0.1,0.1-0.1,0.1-0.2c0.1-0.1,0.1-0.1,0.2-0.1
	C183.9,766.3,183.9,766.3,184,766.3L184,766.3z M125,764c0-1.1,0.7-2,1.9-2c1.1,0,1.9,0.9,1.9,2c0,1.2-0.8,2-1.9,2
	C125.7,766,125,765.1,125,764L125,764z M130.1,764v-3.2h-1.4v0.8c-0.4-0.6-1.1-0.9-2-0.9c-1.8,0-3.2,1.4-3.2,3.3
	c0,1.9,1.4,3.3,3.2,3.3c0.9,0,1.6-0.4,2-0.9v0.8h1.4V764L130.1,764z M176.6,764c0-1.1,0.7-2,1.9-2c1.1,0,1.9,0.9,1.9,2
	c0,1.2-0.8,2-1.9,2C177.3,766,176.6,765.1,176.6,764L176.6,764z M181.7,764v-5.7h-1.4v3.3c-0.4-0.6-1.1-0.9-2-0.9
	c-1.8,0-3.2,1.4-3.2,3.3c0,1.9,1.4,3.3,3.2,3.3c0.9,0,1.6-0.4,2-0.9v0.8h1.4V764L181.7,764z M147.2,761.9c0.9,0,1.5,0.6,1.6,1.5
	h-3.3C145.7,762.5,146.2,761.9,147.2,761.9L147.2,761.9z M147.2,760.7c-1.9,0-3.1,1.4-3.1,3.3c0,2,1.3,3.3,3.2,3.3
	c1,0,1.8-0.2,2.6-0.9l-0.7-1c-0.5,0.4-1.2,0.7-1.8,0.7c-0.9,0-1.7-0.4-1.9-1.5h4.7c0-0.2,0-0.3,0-0.5
	C150.2,762,149,760.7,147.2,760.7L147.2,760.7z M163.8,764c0-1.1,0.7-2,1.9-2c1.1,0,1.9,0.9,1.9,2c0,1.2-0.8,2-1.9,2
	C164.6,766,163.8,765.1,163.8,764L163.8,764z M169,764v-3.2h-1.4v0.8c-0.4-0.6-1.1-0.9-2-0.9c-1.8,0-3.2,1.4-3.2,3.3
	c0,1.9,1.4,3.3,3.2,3.3c0.9,0,1.6-0.4,2-0.9v0.8h1.4V764L169,764z M156.1,764c0,1.9,1.3,3.3,3.4,3.3c1,0,1.6-0.2,2.3-0.8l-0.7-1.1
	c-0.5,0.4-1.1,0.6-1.7,0.6c-1.1,0-1.9-0.8-1.9-2s0.8-2,1.9-2c0.6,0,1.1,0.2,1.7,0.6l0.7-1.1c-0.7-0.5-1.3-0.8-2.3-0.8
	C157.4,760.7,156.1,762.1,156.1,764L156.1,764z M173.8,760.7c-0.8,0-1.3,0.4-1.7,0.9v-0.8h-1.4v6.3h1.4v-3.5c0-1,0.5-1.6,1.4-1.6
	c0.3,0,0.6,0,0.9,0.2l0.4-1.3C174.5,760.7,174.1,760.7,173.8,760.7L173.8,760.7z M136.9,761.4c-0.7-0.4-1.6-0.7-2.6-0.7
	c-1.6,0-2.6,0.8-2.6,2c0,1,0.8,1.7,2.2,1.9l0.6,0.1c0.8,0.1,1.1,0.3,1.1,0.7c0,0.5-0.5,0.8-1.4,0.8c-1,0-1.6-0.3-2.1-0.7l-0.6,1.1
	c0.8,0.6,1.7,0.8,2.7,0.8c1.8,0,2.9-0.9,2.9-2.1c0-1.1-0.8-1.7-2.2-1.9l-0.6-0.1c-0.6-0.1-1.1-0.2-1.1-0.6c0-0.5,0.4-0.7,1.2-0.7
	c0.8,0,1.6,0.3,2,0.5L136.9,761.4L136.9,761.4z M154.7,760.7c-0.8,0-1.3,0.4-1.7,0.9v-0.8h-1.4v6.3h1.4v-3.5c0-1,0.4-1.6,1.3-1.6
	c0.3,0,0.6,0,0.9,0.2l0.4-1.3C155.4,760.7,155,760.7,154.7,760.7L154.7,760.7z M143,760.9h-2.2V759h-1.4v1.9H138v1.3h1.3v2.9
	c0,1.5,0.6,2.3,2.2,2.3c0.6,0,1.3-0.2,1.7-0.5l-0.4-1.2c-0.4,0.2-0.9,0.4-1.2,0.4c-0.7,0-0.9-0.4-0.9-1.1v-2.9h2.2L143,760.9
	L143,760.9z M122.4,767.2v-4c0-1.5-1-2.5-2.5-2.5c-0.8,0-1.6,0.2-2.2,1.1c-0.4-0.7-1.1-1.1-2.1-1.1c-0.7,0-1.3,0.2-1.9,0.9v-0.8
	h-1.4v6.3h1.4v-3.5c0-1.1,0.6-1.7,1.5-1.7s1.4,0.6,1.4,1.7v3.5h1.4v-3.5c0-1.1,0.6-1.7,1.5-1.7s1.4,0.6,1.4,1.7v3.5h1.5L122.4,767.2
	L122.4,767.2z"/>
<rect x="136.5" y="712.6" class="st0" width="20.8" height="37.5"/>
<path class="st1" d="M137.8,731.4c0-7.6,3.6-14.4,9.1-18.7c-4-3.2-9.1-5.1-14.6-5.1h-0.2c-13.1,0-23.8,10.7-23.8,23.8
	c0,13.2,10.7,23.8,23.8,23.8c5.6,0,10.7-1.9,14.7-5.1C141.4,745.7,137.8,739,137.8,731.4z"/>
<path class="st2" d="M184.7,746.1v-0.9h-0.2l-0.3,0.6l-0.3-0.6h-0.2v0.9h0.2v-0.7l0.3,0.6h0.2l0.3-0.6V746.1L184.7,746.1
	L184.7,746.1z M185.5,731.5c-0.1,13.1-10.7,23.7-23.8,23.7c-5.6,0-10.7-1.9-14.7-5.1c5.5-4.4,9.1-11.1,9.1-18.7
	c0-7.6-3.6-14.4-9.1-18.7c4-3.2,9.1-5.1,14.6-5.1h0.2c13.1,0,23.7,10.6,23.8,23.7v0.2H185.5z M183.2,746.1v-0.8h0.3v-0.2h-0.8v0.2
	h0.3v0.8H183.2z"/>
</svg>
