<?xml version="1.0" encoding="utf-8"?>
<!-- Generator: Adobe Illustrator 19.0.1, SVG Export Plug-In . SVG Version: 6.00 Build 0)  -->
<svg version="1.1" id="_x31_" xmlns="http://www.w3.org/2000/svg" xmlns:xlink="http://www.w3.org/1999/xlink" x="0px" y="0px"
	 viewBox="-173 373.7 247.3 95.2" style="enable-background:new -173 373.7 247.3 95.2;" xml:space="preserve">
<style type="text/css">
	.st0{fill:#4D4D4D;}
	.st1{font-family:'ArialMT';}
	.st2{font-size:12.7295px;}
	.st3{fill:#FDFDFD;}
	.st4{fill:#858585;}
	.st5{font-size:41.2622px;}
	.st6{letter-spacing:2;}
</style>
<g>
	<text transform="matrix(1 0 0 1 -10.246 432.4512)" class="st0 st1 st2">C</text>
	<text transform="matrix(1 0 0 1 -1.046 432.4512)" class="st0 st1 st2">OMPLIANT</text>
	<g>
		<path class="st0" d="M-37.2,436.3l8.2-2.6l-2.6-5.9C-33.6,430.2-35.5,433.4-37.2,436.3L-37.2,436.3z M-39.9,409.3l-16-35.6
			l-117.1,6.6l32.4,88.5l62.4-19.7c-4-5.7-5.4-12.5-0.8-15.8c5.1-3.7,12.9,0.6,17.8,6.7C-56.4,432-43,413.5-39.9,409.3z"/>
		<g>
			<path class="st3" d="M-59.6,399.4c4.9,0,8.9-3.7,8.9-8.4c0-4.6-4-8.4-8.9-8.4s-8.9,3.7-8.9,8.4
				C-68.4,395.7-64.5,399.4-59.6,399.4L-59.6,399.4z M-66.8,403.1h14.5V441h-14.5V403.1z"/>
			<path class="st3" d="M-74,414.1c0.1,0.1,0.2,0,0.2-0.1v-9.6c0-0.1-0.1-0.3-0.2-0.3c0,0-1.9-1.2-7.7-1.6c-0.3-0.2-5.4-0.2-6.8,0
				c-21.1,1.7-21.9,17-21.9,17.7v3.7c0,0.5,0,16.1,21.9,17.5c2.1,0.2,6.3,0,6.8,0c5,0,8.5-1.5,8.5-1.5c0.1,0,0.2-0.2,0.2-0.3v-9
				c0-0.1-0.1-0.2-0.2-0.1c0,0-1.6,1.3-8.5,1.9c-2,0.2-2.9,0.1-3.6,0c-9.7-1.7-10.1-8.8-10.1-8.8c0-0.1,0-0.3,0-0.4v-2.7
				c0-0.1,0-0.3,0-0.4c0,0,0.7-7.7,10.2-8.5h3.6C-77.4,412-74,414.1-74,414.1z"/>
			<path class="st3" d="M-150.7,440.8c0,0.1,0.1,0.2,0.2,0.2h14.1c0.1,0,0.2-0.1,0.2-0.2v-11c0-0.1,0.1-0.2,0.2-0.2
				c0,0,22.6,1.6,22.6-13.5c0-12-14.2-13.3-18.8-13.1c-0.1,0-18.3,0-18.3,0c-0.1,0-0.2,0.1-0.2,0.2V440.8L-150.7,440.8z
				 M-136.3,421.2v-9.9h3.5c0,0,5,0.2,5.4,3.7c0.1,0.3,0.1,1.9,0,2c-0.6,4-5,4.2-5,4.2H-136.3z"/>
		</g>
		<path class="st4" d="M-59.2,459.3c1.2,0,2.1,0,3.6-0.7c5.2-2.7,22.5-45.1,40.8-58.1c0.1-0.1,0.3-0.2,0.3-0.3
			c0.1-0.2,0.1-0.3,0.1-0.3s0-0.9-2.7-0.9c-16.3-0.4-33.2,33.7-42.1,47.2c-0.1,0.1-0.7,0-0.7,0s-6-7-11.2-9.7
			c-0.1-0.1-0.7-0.2-1.3-0.2c-0.4,0-2.8,0.5-3.9,1.7c-1.3,1.4-1.3,2.2-1.3,3.9c0,0.1,0.1,0.7,0.3,1c1.3,2.2,7.1,10.2,11.8,14.6
			C-64.8,457.9-63.7,459.3-59.2,459.3z"/>
	</g>
	<text transform="matrix(1 0 0 1 -13.0986 418.1856)" class="st0 st1 st5">D</text>
	<text transform="matrix(1 0 0 1 16.7014 418.1856)" class="st0 st1 st5">S</text>
	<text transform="matrix(1 0 0 1 43.4014 418.1856)" class="st0 st1 st5 st6">S</text>
</g>
</svg>
